/* XPM */
static char *a5b2890744af442893cfa06e8a40dc69naBkTB3CjEcL6rBP[] = {
/* columns rows colors chars-per-pixel */
"65 61 218 2 ",
"   c None",
".  c black",
"X  c #040102",
"o  c #050102",
"O  c #020104",
"+  c #030105",
"@  c #0B0105",
"#  c #0F0206",
"$  c #07040C",
"%  c #0A0E0A",
"&  c #140308",
"*  c #1F010C",
"=  c #120F0D",
"-  c #180F0F",
";  c #0B0614",
":  c #0D0717",
">  c #0D0818",
",  c #1D0614",
"<  c #11091C",
"1  c #10091D",
"2  c #20040E",
"3  c #22040E",
"4  c #23040F",
"5  c #25050F",
"6  c #250510",
"7  c #270511",
"8  c #320414",
"9  c #320615",
"0  c #360717",
"q  c #38111C",
"w  c #34211D",
"e  c #140B24",
"r  c #170D29",
"t  c #1D1034",
"y  c #201239",
"u  c #282021",
"i  c #292122",
"p  c #2A2122",
"a  c #372325",
"s  c #40081B",
"d  c #411220",
"f  c #431220",
"g  c #261543",
"h  c #17214C",
"j  c #1F2859",
"k  c #3B2169",
"l  c #39206F",
"z  c #3A3764",
"x  c #442679",
"c  c #673E7B",
"v  c #A01544",
"b  c #A81648",
"n  c #AB1649",
"m  c #B4174C",
"M  c #BF1951",
"N  c #BF1A52",
"B  c #9D226D",
"V  c #C11952",
"C  c #C21952",
"Z  c #C31953",
"A  c #C41953",
"S  c #C81951",
"D  c #C91A55",
"F  c #C81C56",
"G  c #D21B59",
"H  c #D31B5A",
"J  c #D71B5B",
"K  c #D91C5C",
"L  c #E21D60",
"P  c #E91A61",
"I  c #E91B61",
"U  c #EB1B62",
"Y  c #E91D63",
"T  c #E91E63",
"R  c #EA1E63",
"E  c #ED1D60",
"W  c #EA1E64",
"Q  c #EB1E64",
"!  c #EC1E64",
"~  c #EF1F66",
"^  c #F51E63",
"/  c #F01E66",
"(  c #F01F66",
")  c #F11F66",
"_  c #F11F67",
"`  c #F21F67",
"'  c #F51F68",
"]  c #E92265",
"[  c #E12C66",
"{  c #EA2F6B",
"}  c #F52068",
"|  c #F62068",
" . c #F82069",
".. c #EB336D",
"X. c #9B5E61",
"o. c #BA7878",
"O. c #BB7E7B",
"+. c #BE7C7B",
"@. c #C06974",
"#. c #B6B56F",
"$. c #4B2A85",
"%. c #563199",
"&. c #55319B",
"*. c #57319A",
"=. c #5A3098",
"-. c #58329D",
";. c #5A33A0",
":. c #5B33A2",
">. c #5C34A4",
",. c #5D34A4",
"<. c #5D34A5",
"1. c #5E35A7",
"2. c #5F35A8",
"3. c #5D33B9",
"4. c #6036AB",
"5. c #6539B3",
"6. c #6639B5",
"7. c #6539B7",
"8. c #6639B7",
"9. c #673AB7",
"0. c #6B39B5",
"q. c #6236B8",
"w. c #6237B8",
"e. c #6337B8",
"r. c #6337B9",
"t. c #653AB8",
"y. c #673AB8",
"u. c #6739BA",
"i. c #6538BE",
"p. c #683AB8",
"a. c #683BBB",
"s. c #693BBB",
"d. c #6E3BBA",
"f. c #6A3BBC",
"g. c #6A3CBC",
"h. c #6A3CBD",
"j. c #683CBE",
"k. c #6B3CBE",
"l. c #354498",
"z. c #3D50B4",
"x. c #3E50B5",
"c. c #3E51B5",
"v. c #3F51B5",
"b. c #3F51B6",
"n. c #3F52B6",
"m. c #4052B7",
"M. c #7041B5",
"N. c #7141B5",
"B. c #6D3DC1",
"V. c #BA2881",
"C. c #C02985",
"Z. c #93719D",
"A. c #8B54AF",
"S. c #8C54AF",
"D. c #8D55AF",
"F. c #8F57AE",
"G. c #8F56AF",
"H. c #9057AE",
"J. c #844EB1",
"K. c #8851B5",
"L. c #866EAA",
"P. c #AD6BA8",
"I. c #A179A5",
"U. c #A17BA7",
"Y. c #A47AA6",
"T. c #A38AB7",
"R. c #D78B8B",
"E. c #DA8C89",
"W. c #DD8E96",
"Q. c #DB8C9E",
"!. c #EE8490",
"~. c #F58C96",
"^. c #EF9797",
"/. c #E4929D",
"(. c #E6949C",
"). c #E7949C",
"_. c #E7959C",
"`. c #EA969B",
"'. c #EA979B",
"]. c #EB979B",
"[. c #E8959C",
"{. c #ED9B99",
"}. c #EE9A99",
"|. c #EF9A9A",
" X c #F19A99",
".X c #F39A99",
"XX c #F1989B",
"oX c #F09A9A",
"OX c #F19B9A",
"+X c #F09A9B",
"@X c #F59B9B",
"#X c #F29C99",
"$X c #F39E9B",
"%X c #F69D99",
"&X c #F59F99",
"*X c #F49C9A",
"=X c #F1999C",
"-X c #F99C9A",
";X c #D4A282",
":X c #D3B08C",
">X c #D7ADB1",
",X c #F2A6A7",
"<X c #F8A4A2",
"1X c #FFA9A7",
"2X c #F6B9BB",
"3X c #F2BDBA",
"4X c #F8BBB9",
"5X c #B5DB8D",
"6X c #EAD3BE",
"7X c #A99ECD",
"8X c #A9AEDB",
"9X c #ADB6E6",
"0X c #FFCDD2",
"qX c #FFD4D9",
"wX c #FFD6DC",
"eX c #EFFFE7",
"rX c #F8F5EE",
"tX c #FFFDFA",
/* pixels */
"                                                                                                                                  ",
"                                                                                                                                  ",
"                                                                                                                                  ",
"                                            v.v.v.v.                                                                              ",
"                                          v.v.v.v.v.v.                                                                            ",
"                                        v.v.v.v.v.v.v.                                                                            ",
"                                      v.v.v.v.v.v.v.v.                                                                            ",
"                                    v.v.v.v.v.  v.v.v.v.v.                                                                        ",
"                                  v.v.v.v.v.v.    v.v.v.v.                                                                        ",
"                                  v.v.v.v.v.v.      v.v.v.                                                                        ",
"                              v.v.v.v.v.v.v.v.                                                                                    ",
"                            v.v.v.v.v.v.v.v.v.v.                                                                                  ",
"                          v.v.v.v.v.v.v.v.v.v.v.v.v.                                                                              ",
"                          v.v.v.v.v.v.v.v.v.v.v.v.v.                                                                              ",
"                        v.v.v.v.v.v.v.v.v.v.v.v.v.v.v.                                                                            ",
"                    v.v.v.v.v.v.v.v.z.z.v.v.v.v.m.v.v.v.v.                                                                        ",
"                    v.v.v.v.m.m.m.z.v.v.v.m.m.v.v.v.v.v.v.                                                                        ",
"                            L.I.I.7X9X8XT.I.Z.z h j l.                                                                            ",
"                            %XoX%X6XeXtX4X-XE.w . .                                                                               ",
"                            oXoX{.#.5XrX2X*XR.a . +                                                                               ",
"                      |.|.|.|.oX|.;X:X3X,X*XW.c l x >.g.9.9.                                                                      ",
"                    |.|.|.|.|.|.oXoXoX^. X&X/.K.i.k.g.7.9.9.9.                                                                    ",
"                    |.|.|.|.|.|.|.|.oX|.].].Q.J.e.9.9.9.9.9.9.9.                                                                  ",
"                            |.|.|.|.oX].P.D.D.N.7.9.9.9.9.9.9.9.u.                                                                ",
"                            |.|.|.|.oX).D.3.w.7.9.9.9.9.9.9.9.9.7.0.                                                              ",
"                            |.|.|.|.oX].F.w.7.0.9.9.9.9.9.9.9.9.9.y.9.                                                            ",
"                          |.|.|.|.|.oX].F.w.7.7.9.9.9.9.9.9.9.9.9.9.9.9.                                                          ",
"                          |.|.|.|.|.#X).H.w.u.k.k.k.y.9.9.9.9.9.9.9.9.9.                                                          ",
"                          |.|.|.|.|.#X(.A.r.0.>.-.>.7.9.9.9.9.9.9.9.9.9.                                                          ",
"                                        N.a.>.g > t -.g.9.9.9.9.9.9.9.9.9.                                                        ",
"                                        u.k.>.e . > %.k.9.9.9.9.9.9.9.9.9.9.                                                      ",
"                                        4.k.>.r . 1 %.k.9.9.9.9.9.9.9.9.9.9.                                                      ",
"                    0XqX>Xi . . . . . $ $.B.>.r . e %.k.9.9.y.y.9.9.9.9.9.9.                                                      ",
"                      wX>Xi . . . . . + t k   ; . > %.k.9.9.y.y.9.9.9.9.9.9.                              . . . . . .             ",
"                        >Xi . . . . . . .     . . 1 %.k.t.t.e.y.y.y.t.t.y.y.                            . . . . . . .             ",
"                                              . . 1 =.d.0.9.0.0.0.0.0.0.0.0.                            . . . . . . .             ",
"                                              . . , B C.V.V.V.V.V.V.V.V.V.V.                        . . . . . . .     . . .       ",
"                                              . . 5 S } E E E E E E E E E E                       . . . . . . .       . . .       ",
"                                              o . 6 A } T T T T T T T T T E                       . . . . . . .       . . .       ",
"                              T T T T T E } D 6 . 5 A E T T T T T T T T T ]                   . . . . . . . . . . . .             ",
"                            ' ~ ] ` ~ ~ ~ } J 9 . * Z / T T T T ~ ~ ~ ~ ~ }                 . . . . . . . . . . . . .             ",
"                            Z G G J G G G J M d % q F / T T E L G G G G G Z                 . . . . . . . . . . . . .             ",
"              . . . . . . . 2 0 0 0 0 0 0 9 f X.O.@.[ U T T } m s 9 0 0 0 2 . . . . . . . . . . . . . . . . . . . . . . . .       ",
"              . . . . . . . . . . . . . . . = +.1X~...P T T / v o . . . . . . . . . . . . . . . . . . . . . . . . . . . . .       ",
"              . . . . . . . & 6 2 6 6 * @ . - o.<X!.{ P T T ~ n # . . . . . . . . . . . . . . . . . . . . . . . . . . . . .       ",
"                            b M Z N N M             ] T T T T J                             . . . . . . . . . . . . .             ",
"                            } } ~ / } ~             T T T T T ~                             . . . . . . . . . . . . .             ",
"                            T T T E T E             T T T T T T                             . . . . . . . . . . . . .             ",
"                            E T T T T T             T T T T T T                                   . . . . . . .       . . .       ",
"                            T T T T T T             T T T T T T                                   . . . . . . .       . . .       ",
"                            T T T T T T             T T T T T T                                   . . . . . . . .     . . .       ",
"                          T T T T T T T             T T T T T T                                         . . . . . . .             ",
"                          T T T T T T T             T T T T T T                                         . . . . . . .             ",
"                          T T T T T T T             T T T T T T                                         . . . . . . .             ",
"                                              T T T T T T T T T                                                                   ",
"                                                                                                                                  ",
"                                                                                                                                  ",
"                                                                                                                                  ",
"                                                                                                                                  ",
"                                                                                                                                  ",
"                                                                                                                                  "
};
