/* XPM */
static char *bc4dce9536d940698971e39afb99281ejJhK58gyvDlxAXfT[] = {
/* columns rows colors chars-per-pixel */
"65 65 10 1 ",
"  c None",
". c black",
"X c gray36",
"o c #E91E63",
"O c #E57373",
"+ c #4CAF50",
"@ c #673AB7",
"# c #3F51B5",
"$ c #EF9A9A",
"% c white",
/* pixels */
"                                                                 ",
"                                                                 ",
"                                                                 ",
"                                                                 ",
"                                                                 ",
"                                                                 ",
"                                                                 ",
"                                                                 ",
"                                                                 ",
"                                                                 ",
"                                                                 ",
"                                                                 ",
"                                                                 ",
"                                                                 ",
"                                                                 ",
"                               ###                               ",
"                              #####                              ",
"                             ######                              ",
"                            #### ###                             ",
"                            ####  ##                             ",
"                          ######                                 ",
"                         #########                               ",
"                         #########                               ",
"                       #############                             ",
"                       #############                             ",
"                         .$$$$$$$.                               ",
"                         .$%%$%%$.                               ",
"                          $%+$%+$@@                              ",
"                          $$$$$$$@@                              ",
"                          $$OO$$$@@@                             ",
"                          $$$$$$$@@@                             ",
"                         .@$$%$$@@@@@                            ",
"                        ..@@$$$@@@.@@                            ",
"                        ..@@@@@@@..@@                            ",
"                       ...@@@@@@...@@@                           ",
"                       ...@@@@@@...@@@                           ",
"                       ...@@@@@@...@@@                           ",
"                       ...@@@@@@...@@@                           ",
"                      X.$$@@@@@@...@@@ X                         ",
"                      XX$$@@@@@@...@@@XX                         ",
"                        XX@@@@@@...@@XX                          ",
"                         XoooooOO..ooX                           ",
"                          oooo..Oooooo                           ",
"                          oooo..oooooo                           ",
"                          oooo   ooooo                           ",
"                          ooooo   oooo                           ",
"                           oooooo oooo                           ",
"                            ooooo  ooo                           ",
"                             oooo  ooo                           ",
"                               oo  ooo                           ",
"                               oo  ooo                           ",
"                                   oo                            ",
"                                   oo                            ",
"                                                                 ",
"                                                                 ",
"                                                                 ",
"                                                                 ",
"                                                                 ",
"                                                                 ",
"                                                                 ",
"                                                                 ",
"                                                                 ",
"                                                                 ",
"                                                                 ",
"                                                                 "
};
