/* XPM */
static char *_a7ffa8d4a9a4cf5a023c0b505b781ecm8fEo1QYFcJQLtVR[] = {
/* columns rows colors chars-per-pixel */
"65 65 28 1 ",
"  c None",
". c black",
"X c #2C1C1C",
"o c #201239",
"O c #48091E",
"+ c #273271",
"@ c #2B377C",
"# c #7F6669",
"$ c #D42D32",
"% c #BD1850",
"& c #E91D62",
"* c #E91E63",
"= c #99C45B",
"- c #2F3C87",
"; c #532F94",
": c #673AB7",
"> c #3E50B4",
", c #3F50B4",
"< c #3F50B5",
"1 c #3F51B5",
"2 c #ED7388",
"3 c #EF9A9A",
"4 c #CFA6AA",
"5 c #E2B1CC",
"6 c #FFCDD2",
"7 c #F7FBF3",
"8 c #FFF8F9",
"9 c white",
/* pixels */
"                                                                 ",
"                                                                 ",
"                                                                 ",
"                                                                 ",
"                                                                 ",
"                                                                 ",
"                                                                 ",
"                                                                 ",
"                                                                 ",
"                                                                 ",
"                                                                 ",
"                          111111                                 ",
"                         111111111                               ",
"                        11111111111                              ",
"                       1111111111111                             ",
"                      <11111111  1111                            ",
"                     11111111-.   <11                            ",
"                    >>1111111-.    11                            ",
"                    >111111111@.                                 ",
"                    1111111111@.                                 ",
"                    11111111111+                                 ",
"                   111111111111+.                                ",
"                   >1>11>11>11>+..                               ",
"                    666689964..                                  ",
"                    6666=7964..                                  ",
"                 666666666665:::                                 ",
"                  66666666665:::::                               ",
"                    666666:::::::::                              ",
"                    666666::::::::::                             ",
"                   6666666:::::::::::                            ",
"                   6666666:::::::::::                            ",
"                          ::;.o:::::::                           ",
"                          ::;.o::::::::                          ",
"                          ::;.o::::::::                          ",
"                  6#......::;.o::::::::                          ",
"                   #.......  .o::::::::           .......        ",
"                             .o::::::::           .......        ",
"                             .o::::::::         .......  .       ",
"                             .O*******$         .......  .       ",
"                     *******%.O*******$       ...........        ",
"                     *******%.O*******        ...........        ",
"                     *******%.O*******        ...........        ",
"                ............X32****O......................       ",
"                ............X32****O......................       ",
"                ............X32****O......................       ",
"                     *****     ****           ...........        ",
"                     *****     ****           ...........        ",
"                     *****     ****             .......  .       ",
"                     *****     ****             .......  .       ",
"                     *****     ****             .......  .       ",
"                    ******     ****               .......        ",
"                    ******   ******               .......        ",
"                             ******                              ",
"                                                                 ",
"                                                                 ",
"                                                                 ",
"                                                                 ",
"                                                                 ",
"                                                                 ",
"                                                                 ",
"                                                                 ",
"                                                                 ",
"                                                                 ",
"                                                                 ",
"                                                                 "
};
