/* XPM */
static char *_585b77e2c6b469fac9342ce84838db3vG2SE2QiQIUkXilc[] = {
/* columns rows colors chars-per-pixel */
"100 100 6 1 ",
"  c None",
". c black",
"X c #E91E63",
"o c #673AB7",
"O c #3F51B5",
"+ c #FFCDD2",
/* pixels */
"                                                                                                    ",
"                                                                                                    ",
"                                                                                                    ",
"                                                                                                    ",
"                                                                                                    ",
"                                                                                                    ",
"                                                                                                    ",
"                                                                                                    ",
"                                                                                                    ",
"                                                                                                    ",
"                                                                                                    ",
"                                                                                                    ",
"                                                                                                    ",
"                                                                                                    ",
"                                                                                                    ",
"                                                                                                    ",
"                                                                                                    ",
"                                                                                                    ",
"                                                                                                    ",
"                                                                                                    ",
"                                                                                                    ",
"                                                                                                    ",
"                                                                                                    ",
"                                                                                                    ",
"                                                                                                    ",
"                                                                                                    ",
"                                                                                                    ",
"                                                                                                    ",
"                                                                                                    ",
"                                                                                                    ",
"                                                       O                                            ",
"                                                      .OO                                           ",
"                                                     OOOOO                                          ",
"                                                    .OOOOOO                                         ",
"                                                   OOOOOOOOO                                        ",
"                                                  .OOOOOOOOOO                                       ",
"                                                 ..OOOOOOOOOOO                                      ",
"                                                .OOOOOOOOOOOOOO                                     ",
"                                               ..OOOOOOOOOOOOOOO                                    ",
"                                                   ..++   ++                                        ",
"                                                   ..++   ++                                        ",
"                                              ooooooo++++++++++++                                   ",
"                                              ooooooo++++++++++++                                   ",
"                                          ooooooooooooo+++++                                        ",
"                                          ooooooooooooo+++++                                        ",
"                                          ooooooooooooo+++++++                                      ",
"                                          ooooooooooooo+++++++                                      ",
"                                          ooooooooo..oo                                             ",
"                                          ooooooooo..oo                                             ",
"                                        ooooooooooo..oo                                             ",
"                                        ooooooooooo..oo                                             ",
"                     .......            ooooooooooo..oo                                             ",
"                     .......            ooooooooooo..oo                                             ",
"                     .......            ooooooooooo..oo                                             ",
"                   ..   ......          XXXXXXXXXXX..                                               ",
"                   ..   ......          XXXXXXXXXXX..                                               ",
"                     ............         XXXXXXXXX++XXXXXXX                                        ",
"                     ............         XXXXXXXXX++XXXXXXX                                        ",
"                   ...........................XXXXX..............                                   ",
"                   ...........................XXXXX..............                                   ",
"                     ............             XXXXX    XXXXX                                        ",
"                     ............             XXXXX    XXXXX                                        ",
"                   ..   ......                XXXXX    XXXXX                                        ",
"                   ..   ......                XXXXX    XXXXX                                        ",
"                     .......                  XXXXX    XXXXXXX                                      ",
"                     .......                  XXXXX    XXXXXXX                                      ",
"                                              XXXXXXX                                               ",
"                                              XXXXXXX                                               ",
"                                                                                                    ",
"                                                                                                    ",
"                                                                                                    ",
"                                                                                                    ",
"                                                                                                    ",
"                                                                                                    ",
"                                                                                                    ",
"                                                                                                    ",
"                                                                                                    ",
"                                                                                                    ",
"                                                                                                    ",
"                                                                                                    ",
"                                                                                                    ",
"                                                                                                    ",
"                                                                                                    ",
"                                                                                                    ",
"                                                                                                    ",
"                                                                                                    ",
"                                                                                                    ",
"                                                                                                    ",
"                                                                                                    ",
"                                                                                                    ",
"                                                                                                    ",
"                                                                                                    ",
"                                                                                                    ",
"                                                                                                    ",
"                                                                                                    ",
"                                                                                                    ",
"                                                                                                    ",
"                                                                                                    ",
"                                                                                                    ",
"                                                                                                    "
};
