/* XPM */
static char *_26065a845404299baf45963c45ee010Rrr8jRpTCfALOmt1[] = {
/* columns rows colors chars-per-pixel */
"65 65 8 1 ",
"  c None",
". c black",
"X c #E91E63",
"o c #8BC34A",
"O c #673AB7",
"+ c #3F51B5",
"@ c #FFCDD2",
"# c white",
/* pixels */
"                                                                 ",
"                                                                 ",
"                                                                 ",
"                                                                 ",
"                                                                 ",
"                                                                 ",
"                                                                 ",
"                                                                 ",
"                                                                 ",
"                                                                 ",
"                                   +++++                         ",
"                                  +++++++                        ",
"                                 +++++++++                       ",
"                                 ++  ++++++                      ",
"                                 ++  .++++++                     ",
"                                ++   +++++++                     ",
"                                ++  .++++++++                    ",
"                                +   ++++++++++                   ",
"                                   .++++++++++                   ",
"                                   .+++++++++++                  ",
"                                  .+++++++++++++                 ",
"                                 ..+++++++++++++                 ",
"                                     ..@@###@@                   ",
"                                     ..@@##o@@                   ",
"                                  OOOOO@@@@@@@@@@@               ",
"                                OOOOOOO@@@@@@@@@@                ",
"                               OOOOOOOOOO@@@@@                   ",
"                              OOOOOOOOOOO@@@@@                   ",
"                             OOOOOOOOOOOO@@@@@@@                 ",
"                            OOOOOOOOOOOOO@@@@@@@                 ",
"                            OOOOOOOOO..OO                        ",
"                            OOOOOOOOO..OO                        ",
"                            OOOOOOOOO..OO                        ",
"                            OOOOOOOOO..OO                        ",
"       .......             OOOOOOOOOO..OO                        ",
"       .......             OOOOOOOOOO..OO                        ",
"       .......             OOOOOOOOOO..OO                        ",
"     ..   ......           XXXXXXXXXX..                          ",
"     ..   ......           XXXXXXXXXX..                          ",
"       ............         XXXXXXXXX@@XXXXXXX                   ",
"       ............         XXXXXXXXX@@XXXXXXX                   ",
"     ...........................XXXXX..............              ",
"     ...........................XXXXX..............              ",
"       ............             XXXXX    XXXXX                   ",
"       ............             XXXXX    XXXXX                   ",
"     ..   ......                XXXXX    XXXXX                   ",
"     ..   ......                XXXXX    XXXXX                   ",
"       .......                  XXXXX    XXXXXXX                 ",
"       .......                  XXXXX    XXXXXXX                 ",
"       .......                  XXXXXXX                          ",
"                                XXXXXXX                          ",
"                                                                 ",
"                                                                 ",
"                                                                 ",
"                                                                 ",
"                                                                 ",
"                                                                 ",
"                                                                 ",
"                                                                 ",
"                                                                 ",
"                                                                 ",
"                                                                 ",
"                                                                 ",
"                                                                 ",
"                                                                 "
};
