/* XPM */
static char *ff7542a446ba420cdcca22432984658dNOYDdCIQ35fYAUgb[] = {
/* columns rows colors chars-per-pixel */
"65 65 218 2 ",
"   c None",
".  c black",
"X  c #020001",
"o  c #030001",
"O  c #040002",
"+  c #050102",
"@  c #060103",
"#  c #070103",
"$  c #050303",
"%  c #030205",
"&  c #090104",
"*  c #0A0104",
"=  c #0B0105",
"-  c #0C0105",
";  c #0F0206",
":  c #080404",
">  c #0D0707",
",  c #050309",
"<  c #08040E",
"1  c #08050E",
"2  c #09050F",
"3  c #180206",
"4  c #120208",
"5  c #140309",
"6  c #150409",
"7  c #17060F",
"8  c #18030A",
"9  c #1A030B",
"0  c #1B030C",
"q  c #0A0611",
"w  c #0A0612",
"e  c #0B0612",
"r  c #0A0613",
"t  c #0B0613",
"y  c #0E0818",
"u  c #0E0819",
"i  c #10091D",
"p  c #11091D",
"a  c #11091E",
"s  c #110A1E",
"d  c #181817",
"f  c #22030A",
"g  c #22040E",
"h  c #2E050F",
"j  c #270511",
"k  c #2D0613",
"l  c #3A0510",
"z  c #3A0614",
"x  c #3C0615",
"c  c #380718",
"v  c #140B23",
"b  c #160D28",
"n  c #1A0E2E",
"m  c #121734",
"M  c #1E1136",
"N  c #1F1136",
"B  c #131835",
"V  c #131836",
"C  c #231935",
"Z  c #343532",
"A  c #353535",
"S  c #37353B",
"D  c #45091D",
"F  c #4B081B",
"G  c #49091F",
"H  c #4B0A20",
"J  c #4D0A21",
"K  c #520B23",
"L  c #5A0A22",
"P  c #5B0A22",
"I  c #5B0C27",
"U  c #620D2A",
"Y  c #781033",
"T  c #5D302E",
"R  c #693735",
"E  c #793D3D",
"W  c #171F4C",
"Q  c #3F194F",
"!  c #2F1A53",
"~  c #2F1B55",
"^  c #291D5C",
"/  c #301B56",
"(  c #301B57",
")  c #311C57",
"_  c #311C58",
"`  c #321C5A",
"'  c #341D5C",
"]  c #1E2655",
"[  c #3A2167",
"{  c #3B2168",
"}  c #3B216A",
"|  c #3F2470",
" . c #441950",
".. c #481A53",
"X. c #531B58",
"o. c #5F1D5D",
"O. c #44375C",
"+. c #6D1F63",
"@. c #473665",
"#. c #442679",
"$. c #7C216B",
"%. c #5E5F5B",
"&. c #5F5F5F",
"*. c #5E5C62",
"=. c #840F34",
"-. c #811137",
";. c #8C1137",
":. c #871139",
">. c #8E123D",
",. c #93113A",
"<. c #95123B",
"1. c #9A123D",
"2. c #AE164A",
"3. c #AF174A",
"4. c #B5174D",
"5. c #B7184E",
"6. c #BC1850",
"7. c #BE1851",
"8. c #BF1951",
"9. c #972068",
"0. c #A8267C",
"q. c #AD277E",
"w. c #AF277F",
"e. c #C31953",
"r. c #C51954",
"t. c #C91A56",
"y. c #CB1A56",
"u. c #CD1A57",
"i. c #CF1B58",
"p. c #D41B5A",
"a. c #DE1D5E",
"s. c #E31D61",
"d. c #E51D61",
"f. c #E61E62",
"g. c #E91E63",
"h. c #EA1E63",
"j. c #EA1E64",
"k. c #EB1E64",
"l. c #ED1E65",
"z. c #ED1F65",
"x. c #EE1F65",
"c. c #EF1F65",
"v. c #EF1F66",
"b. c #F01F66",
"n. c #F11F67",
"m. c #F21F67",
"M. c #FF226F",
"N. c #844242",
"B. c #CC7876",
"V. c #492982",
"C. c #4A2983",
"Z. c #4B2A86",
"A. c #4C2B87",
"S. c #4F2D8D",
"D. c #4F2D8F",
"F. c #522D8D",
"G. c #502D8E",
"H. c #512E90",
"J. c #512E91",
"K. c #522E91",
"L. c #522E92",
"P. c #563199",
"I. c #57319A",
"U. c #57319B",
"Y. c #5B33A2",
"T. c #5D34A6",
"R. c #6039A6",
"E. c #613AA7",
"W. c #6137AD",
"Q. c #6237AE",
"!. c #6639B3",
"~. c #6539B4",
"^. c #6639B4",
"/. c #6739B4",
"(. c #6639B5",
"). c #663AB5",
"_. c #673AB7",
"`. c #6939B5",
"'. c #663AB8",
"]. c #673AB8",
"[. c #673BB9",
"{. c #683AB8",
"}. c #683BB9",
"|. c #693BBB",
" X c #6B3BBB",
".X c #6A3CBD",
"XX c #6B3CBD",
"oX c #6B3CBE",
"OX c #6A3DBF",
"+X c #6C3DBF",
"@X c #3B4CAB",
"#X c #3C4DAB",
"$X c #3D4EAF",
"%X c #3D4FB0",
"&X c #3E51B5",
"*X c #3F51B5",
"=X c #3D50B6",
"-X c #3E51B6",
";X c #64459C",
":X c #787C89",
">X c #696D97",
",X c #6C7294",
"<X c #4253B3",
"1X c #4052B7",
"2X c #4053B9",
"3X c #6D3DC1",
"4X c #6C3CC2",
"5X c #6F3FC6",
"6X c #8B6693",
"7X c #9F6390",
"8X c #808382",
"9X c gray51",
"0X c #848382",
"qX c #878682",
"wX c #848484",
"eX c #858584",
"rX c #868686",
"tX c #898280",
/* pixels */
"                                                                                                                                  ",
"                                                                                                                                  ",
"                                                                                                                                  ",
"                                                                                                                                  ",
"                                                    *X*X*X*X*X*X1X                                                                ",
"                                                    *X1X*X*X*X*X=X=X                                                              ",
"                                                  <X=X=X*X*X*X*X<X=X<X                                                            ",
"                                              <X=X1X=X<X*X*X*X*X*X1X1X=X                                                          ",
"                                              =X<X=X1X=X<X=X*X*X*X*X*X*X=X                                                        ",
"                                            *X1X=X=X<X      *X*X*X*X*X*X<X=X                                                      ",
"                                            1X=X1X*X        =X1X*X*X*X*X<X=X                                                      ",
"                                            =X<X=X          <X=X*X*X*X*X1X=X                                                      ",
"                                                            =X=X*X*X*X*X*X*X<X                                                    ",
"                                                          *X1X<X*X*X*X*X*X*X=X                                                    ",
"                                                        *X*X*X*X*X*X*X*X*X*X*X*X                                                  ",
"                                                      1X*X*X*X*X*X*X*X*X*X*X*X*X                                                  ",
"                                                      *X*X*X=X1X1X=X=X<X=X<X1X1X                                                  ",
"                                                7X=X1X1X*X*X<X=X*X<X=X1X=X1X=X=X1X=X1X                                            ",
"                                              B.6X=X=X2X1X2X2X2X1X2X2X2X1X2X-X-X1X1X1X                                            ",
"                                              tX>X<X=X%X@X@X#X#X#X#X#X#X#X#X@X@X$X*X=X                                            ",
"                                              8X:X,X  W B B B B B B B B B B B m ]                                                 ",
"                                              8XqXqX    X X X X X X X X X X X X                                                   ",
"                                              8XwXeX      X X X X X X X X X X                                                     ",
"                                              eXeXeX      X X X X X X X X X X                                                     ",
"                                              &.%.*.;X  | , X X X X X X X X 1 V.                                                  ",
"                                              A S O.E.4XG.w X X X X X X X X u P.oX{.                                              ",
"                                              Z @.E.).oXD.w X X X X X X X X s P.oX).'.                                            ",
"                                              d C ( ~ H.D.w X X X X X X X X s U.A.! ( n                                           ",
"                                              X X X X { H.r X X X X X X X X u U._ X X X X                                         ",
"                                              X X X X { H.r X X X X X X X X v U._ X X X X                                         ",
"                                              X X X X { L.r X X X X X X X X u U.~ X X X X                                         ",
"                                              X u M M V.H.r X X X X X X X X v U.#.b % X X                                         ",
"                                                  Q.Q.{.D.w X X X X X X X X u P.oXZ.q X X                                         ",
"                                                  }.}.4XD.w X X X X X X X X u P.5XH.e X X                                         ",
"                                                  '.).oXS.1 X X X X X X X u _ T.4XD.w X X                                         ",
"                                                  `.).oXH.v 1 w w w w w 1 ' ).'.oXD.w X X                                         ",
"                                                  ).'.{.Q.H.G.G.G.G.G.G.D.Y.}.'.}.G.w X X                                         ",
"                                                  [.).{.{.oXoXoXoXoXoX+XoX}.{.).oXD.w X X                                         ",
"                                                  '.{.'.{.).`.'.'.`.{.).`.'.).{.oXD.w X X                                         ",
"                                                  ).[.`.'.).[.{.'.'.'.).[.'.`.'.oXD.w X X                                         ",
"                                                  {.).'.`.'.{.).`.'.).'.).{.).{.oXD.w X X                                         ",
"                                                  '.{.{.}.'.'.{.[.[.}.'.}.}.'.}.3XD.w X X                                         ",
"                                                    `.).).`.!.).`.).).`.!.).`.!.}.G.w X $                                         ",
"                                                      ^  .q.o.X.w.X.o.q...+.0.Q $.9.7 T E >                                       ",
"                                                      l P 1.z h <.h x ,.f F ;.3 P -.6 R N.>                                       ",
"                                                      g.3.g X X - O O & O O & X # * X $ >                                         ",
"                                                      M.6.- X X X X X X X X X X X X X X X                                         ",
"                                                      >.-.I 6 6 J 9 X X X j D & k D # X X                                         ",
"                                                      ; G y.U K u.H X   ; Y e.c :.5.9     X                                       ",
"                                                      3.e.s.y.e.s.      5.p.s.8.p.a.                                              ",
"                                                      M.v.g.v.v.k.      v.v.k.z.z.k.                                              ",
"                                                      s.g.g.g.g.g.      k.s.g.g.g.g.                                              ",
"                                                      g.g.g.g.g.g.      g.g.g.g.g.g.                                              ",
"                                                      g.g.g.g.g.g.      g.g.g.g.g.g.                                              ",
"                                                      g.g.g.g.g.g.      g.g.g.g.g.g.                                              ",
"                                                      g.g.g.g.g.g.      g.g.g.g.g.g.                                              ",
"                                                      g.g.g.g.g.g.      g.g.g.g.g.g.                                              ",
"                                                      g.g.g.g.g.g.      g.g.g.g.g.g.                                              ",
"                                                      g.g.g.g.g.g.      g.g.g.g.g.g.                                              ",
"                                                      g.g.g.g.g.g.                                                                ",
"                                                      g.g.g.g.g.g.                                                                ",
"                                                        g.g.g.g.g.                                                                ",
"                                                                                                                                  ",
"                                                                                                                                  ",
"                                                                                                                                  "
};
