/* XPM */
static char *_dbbc34e1fa04e51b8bcbe557c99fa215CvOHR9vOB2G9uc5[] = {
/* columns rows colors chars-per-pixel */
"65 57 163 2 ",
"   c None",
".  c black",
"X  c #020103",
"o  c #030205",
"O  c #0C0205",
"+  c #04050B",
"@  c #05060E",
"#  c #130208",
"$  c #150309",
"%  c #060711",
"&  c #0A0612",
"*  c #0B0613",
"=  c #0B0614",
"-  c #0B0616",
";  c #10091C",
":  c #1A1512",
">  c #20040E",
",  c #2B0612",
"<  c #2C0613",
"1  c #2D0613",
"2  c #380718",
"3  c #150C25",
"4  c #0F132A",
"5  c #10142E",
"6  c #10152E",
"7  c #161C3E",
"8  c #271D2C",
"9  c #42091C",
"0  c #44081D",
"q  c #44091D",
"w  c #5E0A27",
"e  c #5F0A27",
"r  c #5A0E2E",
"t  c #451021",
"y  c #660D2B",
"u  c #6D0E2E",
"i  c #4A373A",
"p  c #483D3D",
"a  c #171D43",
"s  c #181F45",
"d  c #2B184C",
"f  c #2B184D",
"g  c #311748",
"h  c #2E1A52",
"j  c #292C53",
"k  c #20295D",
"l  c #2A377A",
"z  c #5E4F4F",
"x  c #674C50",
"c  c #8D304D",
"v  c #993A58",
"b  c #DA1C5C",
"n  c #DA1C5D",
"m  c #DB1C5D",
"M  c #DE1D5E",
"N  c #E01D5F",
"B  c #E41C60",
"V  c #E41D61",
"C  c #E51E61",
"Z  c #E91D62",
"A  c #E81E63",
"S  c #E91E63",
"D  c #EA1E62",
"F  c #EA1E63",
"G  c #EC1E63",
"H  c #EA1E64",
"J  c #EB1E64",
"K  c #D8226E",
"L  c #DA226F",
"P  c #E73470",
"I  c #EC3572",
"U  c #2E3C85",
"Y  c #303D89",
"T  c #502D8E",
"R  c #532F94",
"E  c #58319C",
"W  c #59329F",
"Q  c #5A33A0",
"!  c #5A32A2",
"~  c #6036AB",
"^  c #7537AE",
"/  c #7637AF",
"(  c #6337B6",
")  c #6437B6",
"_  c #6437B7",
"`  c #6438B2",
"'  c #6538B7",
"]  c #6639B7",
"[  c #673AB7",
"{  c #6739B8",
"}  c #663AB8",
"|  c #673AB8",
" . c #673BB9",
".. c #683AB8",
"X. c #683AB9",
"o. c #683BB9",
"O. c #683BBA",
"+. c #6C3EB8",
"@. c #324190",
"#. c #334294",
"$. c #344396",
"%. c #36459A",
"&. c #37469D",
"*. c #37479E",
"=. c #3C4DAB",
"-. c #3C4DAC",
";. c #3D4EAF",
":. c #3E50B2",
">. c #3E50B3",
",. c #3F51B4",
"<. c #3F51B5",
"1. c #4052B6",
"2. c #4052B7",
"3. c #4053B8",
"4. c #6D44A8",
"5. c #7143B9",
"6. c #784BBB",
"7. c #7574BD",
"8. c #9869C0",
"9. c #A071C1",
"0. c #A172C1",
"q. c #A18DB6",
"w. c #F382A1",
"e. c #F684A4",
"r. c #DFB3B9",
"t. c #E0B3B6",
"y. c #B6D488",
"u. c #C5C78E",
"i. c #B585C5",
"p. c #B49DC7",
"a. c #B69EC7",
"s. c #B89FC8",
"d. c #B6AAD2",
"f. c #B7B0D8",
"g. c #B6BDE3",
"h. c #B8BEE6",
"j. c #C191C7",
"k. c #D8A8CB",
"l. c #E9B9CC",
"z. c #EDBCCF",
"x. c #F8B7C2",
"c. c #FDBAC6",
"v. c #F6CEC8",
"b. c #F8CCC9",
"n. c #FACDD1",
"m. c #FFCDD2",
"M. c #FFCDD3",
"N. c #FFCED2",
"B. c #FFCED3",
"V. c #FFCFD3",
"C. c #FFCFD4",
"Z. c #FFD1D3",
"A. c #FFD0D4",
"S. c #FFD2D5",
"D. c #FFD2D7",
"F. c #FFD3D7",
"G. c #EAE0C7",
"H. c #E4F4D3",
"J. c #FFDDE1",
"K. c #FFE2E4",
"L. c #FDF8F6",
"P. c #FFF9F9",
"I. c white",
/* pixels */
"                                                                                                                                  ",
"                                                                                                                                  ",
"                                                                                  <.<.<.<.<.<.                                    ",
"                                                                                <.<.<.<.<.<.<.<.<.                                ",
"                                                                            <.<.<.<.<.<.<.<.<.<.<.<.                              ",
"                                                                            <.<.<.<.<.1.1.<.<.<.<.<.                              ",
"                                                                            <.<.<.    @.*.<.<.<.<.<.<.                            ",
"                                                                            <.<.<.    @ s >.<.<.<.<.<.<.<.                        ",
"                                                                          <.<.<.      Y $.<.<.<.<.<.<.<.<.                        ",
"                                                                          <.<.        U 3.<.<.<.<.<.<.<.<.                        ",
"                                                                          <.<.      4 l 1.<.<.<.<.<.<.<.<.<.                      ",
"                                                                          <.        =.:.<.<.<.<.<.<.<.<.<.<.<.                    ",
"                                                                                  % %.3.<.<.<.<.<.<.<.<.<.<.<.                    ",
"                                                                                  + #.1.<.<.<.<.<.<.<.<.<.<.<.<.                  ",
"                                                                                  7 *.1.<.<.<.<.<.<.<.<.<.<.<.<.<.                ",
"                                                                              . 5 -.<.<.<.<.<.<.<.<.<.<.<.<.<.<.<.<.              ",
"                                                                            . . 4 >.<.<.<.<.<.<.<.<.<.<.<.<.<.<.<.<.              ",
"                                                                                      k a j q.s.d.g.g.h.f.a.a.7.                  ",
"                                                                                      . . : r.m.K.I.I.H.G.m.m.                    ",
"                                                                                      3 = 8 r.C.J.P.L.y.u.C.m.                    ",
"                                                                                | [ [ ~ Q 4.l.m.C.F.F.v.b.m.m.m.m.m.m.m.          ",
"                                                                          [ [ [ | [ [ | | 6.z.C.m.m.m.m.C.m.m.m.m.m.m.            ",
"                                                                        [ [ [ [ [ [ [ [ [ 5.i.j.k.m.m.m.m.m.m.m.m.m.m.            ",
"                                                                      [ [ [ [ [ [ [ [ [ [ [ [ ( 9.m.m.m.m.m.m.                    ",
"                                                                    [ [ [ [ [ [ [ [ [ [ [ [ [ ) 9.m.m.m.m.m.m.                    ",
"                                                                  [ [ [ [ [ [ [ [ [ [ [ [ [ ..) 9.m.m.m.m.m.m.m.m.m.              ",
"                                                                [ [ [ [ [ [ [ [ [ [ ..o.o.o.[ ) 9.m.m.m.m.m.m.m.m.m.              ",
"                                                                [ [ [ [ [ [ [ [ [ [ [ W T R ` ) 8.m.m.m.m.m.m.m.m.m.              ",
"                                                                [ [ [ [ [ [ [ [ [ [ ..h o ; Q o.+.                                ",
"                                                                [ [ [ [ [ [ [ [ [ [ ..d . * W o.|                                 ",
"                                                                [ [ [ [ [ [ [ [ [ [ o.d . = W o.[                                 ",
"                                                                [ [ [ [ [ [ [ [ [ [ ..d . = W o.[                                 ",
"                                                                [ [ [ [ [ [ [ [ [ [ o.d . = W o.[                                 ",
"        . . . . . . . . .                                   [ [ [ [ [ [ [ [ [ [ [ [ ..d . = W o.[                                 ",
"        . . . . . . . . .                                   [ [ [ [ [ [ [ [ [ [ [ [ o.d . = W o.[                                 ",
"        . . . . . . . . .                                   | | | | | | } } } | [ ..o.d . = W o.[                                 ",
"        . . . . . . . . .                                   ^ ^ ^ ^ ^ ^ ^ ^ ^ ^ ^ ^ ^ g . * W o.[                                 ",
"    . .         . . . . . . . .                             K K K K K K K K K K K K K r . .                                       ",
"    . .         . . . . . . . .                             F F F F F F F F C F F F F y . .                                       ",
"    . .         . . . . . . . .                               F F F F F C F F F C F F v z x                                       ",
"        . . . . . . . . . . . . . . . .                         C F F C F F C F F H F e.F.c.I F C F H H F F F                     ",
"        . . . . . . . . . . . . . . . .                         C C C C C F H H C H F w.n.x.P N C V V C V V V                     ",
"    . . . . . . . . . . . . . . . . . . . . . . . . . . . . . > q q 0 9 y N F H H C F c p i t q q q q q 9 9 9 $ . . . . .         ",
"    . . . . . . . . . . . . . . . . . . . . . . . . . . . . . . . . . . < n F H F F F w . . . . . . . . . . . . . . . . . .       ",
"    . . . . . . . . . . . . . . . . . . . . . . . . . . . . . . . . . . 2 M F C F F H u . . . . # < < < , < , O . . . . . .       ",
"        . . . . . . . . . . . . . . . .                                   F F F H C F             n n M n n n                     ",
"        . . . . . . . . . . . . . . . .                                   F F H H C H             H H F F F F                     ",
"    . . . .   . . . . . . . . . .   .                                     F C H F F H             C F F F F F                     ",
"    . .         . . . . . . . .                                           H F H H C F             F F F F F C                     ",
"    . .         . . . . . . . .                                           C F H H F F             H H C H H H                     ",
"        . . . . . . . . .                                                 H F C F F H             H H F F C C F H C               ",
"        . . . . . . . . .                                                 F F H H C H             H C F F H H F F F               ",
"        . . . . . . . . .                                                 F F H H C H H           F F F F C H H H H               ",
"        . . . . . . . . .                                                 F F C F F F F C F                                       ",
"                                                                          F F F F H C H F F                                       ",
"                                                                                                                                  ",
"                                                                                                                                  "
};
