/* XPM */
static char *_b32378120654747dd2a01f45ebef66e7gNBbkz8GvWJt1NZ[] = {
/* columns rows colors chars-per-pixel */
"61 52 8 1 ",
"  c None",
". c black",
"X c #E91E63",
"o c #8BC34A",
"O c #673AB7",
"+ c #3F51B5",
"@ c #FFCDD2",
"# c white",
/* pixels */
"                                                             ",
"                                                             ",
"                                                             ",
"                                                             ",
"                                                             ",
"                                                             ",
"                                        +                    ",
"                                       .++                   ",
"                                      +++++                  ",
"                                     .++++++                 ",
"                                    +++++++++                ",
"                                   .++++++++++               ",
"                                  ..+++++++++++              ",
"                                 .++++++++++++++             ",
"                                ..+++++++++++++++            ",
"                                    ..@@###@@                ",
"                                    ..@@##o@@                ",
"                               OOOOOOO@@@@@@@@@@@@           ",
"                               OOOOOOO@@@@@@@@@@@@           ",
"                           OOOOOOOOOOOOO@@@@@                ",
"                           OOOOOOOOOOOOO@@@@@                ",
"                           OOOOOOOOOOOOO@@@@@@@              ",
"                           OOOOOOOOOOOOO@@@@@@@              ",
"                           OOOOOOOOO..OO                     ",
"                           OOOOOOOOO..OO                     ",
"                         OOOOOOOOOOO..OO                     ",
"                         OOOOOOOOOOO..OO                     ",
"      .......            OOOOOOOOOOO..OO                     ",
"      .......            OOOOOOOOOOO..OO                     ",
"      .......            OOOOOOOOOOO..OO                     ",
"    ..   ......          XXXXXXXXXXX..                       ",
"    ..   ......          XXXXXXXXXXX..                       ",
"      ............         XXXXXXXXX@@XXXXXXX                ",
"      ............         XXXXXXXXX@@XXXXXXX                ",
"    ...........................XXXXX..............           ",
"    ...........................XXXXX..............           ",
"      ............             XXXXX    XXXXX                ",
"      ............             XXXXX    XXXXX                ",
"    ..   ......                XXXXX    XXXXX                ",
"    ..   ......                XXXXX    XXXXX                ",
"      .......                  XXXXX    XXXXXXX              ",
"      .......                  XXXXX    XXXXXXX              ",
"                               XXXXXXX                       ",
"                               XXXXXXX                       ",
"                                                             ",
"                                                             ",
"                                                             ",
"                                                             ",
"                                                             ",
"                                                             ",
"                                                             ",
"                                                             "
};
