/* XPM */
static char *_18091e7458f4207854006ee5a44d0d6k5gEaT61prMKZnuF[] = {
/* columns rows colors chars-per-pixel */
"55 65 134 2 ",
"   c None",
".  c #000000",
"X  c #090304",
"o  c #07040D",
"O  c #0B0C0C",
"+  c #180C0C",
"@  c #2A0612",
"#  c #261012",
"$  c #170D29",
"%  c #150C25",
"&  c #1F1137",
"*  c #131A3D",
"=  c #25153A",
"-  c #262727",
";  c #3E2327",
":  c #5B0B26",
">  c #501C25",
",  c #761035",
"<  c #472D2C",
"1  c #613031",
"2  c #6C3736",
"3  c #151D42",
"4  c #281748",
"5  c #2E1A52",
"6  c #351E5E",
"7  c #3B2168",
"8  c #451A53",
"9  c #4B2E4B",
"0  c #443857",
"q  c #42257A",
"w  c #5B5C5B",
"e  c #565656",
"r  c #664545",
"t  c #684241",
"y  c #7F5252",
"u  c #5B4766",
"i  c #5D5A60",
"p  c #5E576A",
"a  c #5F5374",
"s  c #674F70",
"d  c #786868",
"f  c #95133F",
"g  c #B6174E",
"h  c #BA3E57",
"j  c #A83A60",
"k  c #A53B61",
"l  c #B63460",
"z  c #C51A54",
"x  c #D11B59",
"c  c #D8205D",
"v  c #E41F66",
"b  c #E91E63",
"n  c #E81F68",
"m  c #D22862",
"M  c #E22066",
"N  c #EA2064",
"B  c #EB3C6A",
"V  c #844A5F",
"C  c #886E6E",
"Z  c #89706D",
"A  c #8D7070",
"S  c #B37473",
"D  c #D55B68",
"F  c #E1516F",
"G  c #DB706F",
"H  c #DF7172",
"J  c #E77979",
"K  c #6EAC60",
"L  c #7EA664",
"P  c #4D2B89",
"I  c #522F97",
"U  c #553096",
"Y  c #58319C",
"T  c #5C34A3",
"R  c #6137AC",
"E  c #663DAE",
"W  c #673AB7",
"Q  c #6A3CB6",
"!  c #663AB9",
"~  c #693BB9",
"^  c #3F51B5",
"/  c #78418E",
"(  c #734681",
")  c #7E5F85",
"_  c #62459A",
"`  c #4152B5",
"'  c #7242B5",
"]  c #7947B3",
"[  c #8733A2",
"{  c #8933A4",
"}  c #8D5784",
"|  c #9C6288",
" . c #8840A6",
".. c #975CAD",
"X. c #834EB1",
"o. c #A868A7",
"O. c #A365AA",
"+. c #AE6CA8",
"@. c #B06DA7",
"#. c #BB75A5",
"$. c #C97FA3",
"%. c #C57DA2",
"&. c #B882A2",
"*. c #B581A1",
"=. c #C19E83",
"-. c #DB8C9E",
";. c #E98282",
":. c #EA8888",
">. c #EE9595",
",. c #E69C96",
"<. c #EE9997",
"1. c #E5939C",
"2. c #EE9B9A",
"3. c #F19C9B",
"4. c #CDAA95",
"5. c #F3A09E",
"6. c #F2A3A2",
"7. c #F4ADAD",
"8. c #F4AFB0",
"9. c #F6B3B1",
"0. c #F5BCBC",
"q. c #9BC38F",
"w. c #90CE93",
"e. c #A0C493",
"r. c #B7E2BC",
"t. c #D6DCC8",
"y. c #F6C5C5",
"u. c #FAD6D7",
"i. c #FADEDE",
"p. c #FCE3E4",
"a. c #FCE9E9",
"s. c #E2F5E5",
"d. c #FEF6F6",
"f. c #FFFCFC",
/* pixels */
"                                                                                                              ",
"                                                                                                              ",
"                                                                                                              ",
"                                                                                                              ",
"                                                      ^ ^ ^ ^ ^                                               ",
"                                                      ^ ^ ^ ^ ^ ^                                             ",
"                                                    ^ ^ ^ ^ ^ ^ ^                                             ",
"                                                ^ ^ ^ ^ ^ ` ^ ^ ^                                             ",
"                                                ^ ^ ^ ^ ^ ^ ^ ^ ^ ^                                           ",
"                                              ^ ^ ^ ^ ^ ^   ^ ^ ^ ^ ^                                         ",
"                                              ^ ^ ^ ^ ^ ^       ^ ^ ^                                         ",
"                                            ^ ^ ^ ^ ^ ^ ^       ^ ^ ^                                         ",
"                                        ^ ^ ^ ^ ^ ^ ^ ^ ^                                                     ",
"                                    ^ ^ ^ ^ ^ ^ ^ ^ ^ ^ ^ ^ ^ ^                                               ",
"                                    ^ ^ ^ ^ ^ ^ ^ ^ ^ ^ ^ ^ ^ ^                                               ",
"                                    ^ ^ ^ ^ ^ ^ ^ ^ ^ ^ ^ ^ ^ ^                                               ",
"                              ^ ^ ^ ^ ^ ^ ^ ^ ^ ^ ^ ^ ^ ^ ^ ^ ^ ^ ^ ^                                         ",
"                              ^ ^ ^ ^ ^ ^ ^ ^ ^ ^ ^ ^ ^ ^ ^ ^ ^ ^ ^ ^                                         ",
"                              ^ ^ ^ ^ ^ ` ` ` ` ` ` ` ` ` ` ` ^ ^ ^ ^                                         ",
"                                    3 0 *.&.&.&.&.&.&.&.&.&.u *                                               ",
"                                    . < <.7.9.9.6.3.9.9.7.3.t .                                               ",
"                                    . < <.i.f.f.0.7.d.f.a.6.t .                                               ",
"                                      y 2.p.s.w.4.9.f.r.q.2.} q R                                             ",
"                                        2.u.t.K =.8.a.q.L ,.O.! ~                                             ",
"                                        <.3.2.,.2.2.6.,.,.2.O.! ~                                             ",
"                                        3.2.>.:.;.:.<.2.3.2.O.! W ~ ~                                         ",
"                                        3.2.>.J J $.2.2.2.3.O.! W W W                                         ",
"                                        <.3.<.>.>.>.2.2.2.>.O.! W W W                                         ",
"                                      9 o.-.3.3.9.y.2.3.1.+.X.! ~ ~ W W                                       ",
"                                    . & W #.1.2.u.i.3.,.$.' ~ W T R W W W                                     ",
"                                  . . & W Q ..<.5.6.5.o.' ~ ! T % 7 ~ ~ W                                     ",
"                                  . . & W W ] +.#.@.@.X.! ! P 5 . 6 ~ W W                                     ",
"                                  . . & W W W W W W ~ W W R 4 . . 6 ~ W ~                                     ",
"                              . . . . & W W W W W W W ~ Y $ o . . 6 ~ W W W                                   ",
"                              . . . . & R ~ ~ W W W W ! I X . . . 6 ~ ~ W W                                   ",
"                              . . . . & W W W W W W W ~ U o . . . 6 ~ ~ W W                                   ",
"                              . . . . & R ~ W W ~ W W ~ U o . . . 6 ~ W ~ W                                   ",
"                              . . . . & W W W W W W W ~ U o . . . 6 ~ W W W                                   ",
"                              . . X X = W W W W W W W ~ U o . . . 6 ~ W W W                                   ",
"                            e O ; S S | Q W ~ W W W W ~ U o . . . 6 ~ ~ W W     w                             ",
"                            w - r 5.5.&.Q Q ~ W ! Q ! ! U o . . . 6 ~ ~ W W   w w                             ",
"                            w w A ,.2.%.Q Q W W Q Q ! Q U o . . . 6 ~ W ~ E p w w                             ",
"                                d C Z ) ! ! ~ W ! ! ! ! U o . . . 6 ~ ~ _ a i w                               ",
"                                  w w s [ { { { [ [ [ [ / ; + . . 8 { { ( w w                                 ",
"                                    w V v v v v n n v F H H 1 . . , n n k w                                   ",
"                                      j b b b b b x : > 2 H h f f z b b m l                                   ",
"                                        b b b b N g X . # D B b b b b b b b                                   ",
"                                        b b b b N g X . @ x N b b b b b b b                                   ",
"                                        b b b b b x         b b b b b b b b                                   ",
"                                        b b b b b b           b b b b b b b                                   ",
"                                        b b b b b b b           b b b b b b                                   ",
"                                          b b b b b b b b b     b b b b b b                                   ",
"                                          b b b b b b b b b     b b b b b b                                   ",
"                                              b b b b b b b       b b b b b                                   ",
"                                              b b N b b b b       b b b b b                                   ",
"                                                b b b b b b       b b b b N                                   ",
"                                                      b b b       b b b b b                                   ",
"                                                      b b b       b b b b b                                   ",
"                                                      b b b       b b b b b                                   ",
"                                                                  b b b b                                     ",
"                                                                  b b b b                                     ",
"                                                                    b b b                                     ",
"                                                                                                              ",
"                                                                                                              ",
"                                                                                                              "
};
