/* XPM */
static char *_7ab3a93c9294610dd80f218904cf73aiZZqUCP6IynFi9OK[] = {
/* columns rows colors chars-per-pixel */
"65 57 9 1 ",
"  c None",
". c black",
"X c #E91E63",
"o c #8BC34A",
"O c #673AB7",
"+ c #3F51B5",
"@ c #EF9A9A",
"# c #FFCDD2",
"$ c white",
/* pixels */
"                                                                 ",
"                                                                 ",
"                                                                 ",
"                                                                 ",
"                                                                 ",
"                                                                 ",
"                                                                 ",
"                                                                 ",
"                                                                 ",
"                                                                 ",
"                          +++                                    ",
"                         +++++                                   ",
"                        ++++++                                   ",
"                       ++++ +++                                  ",
"                       ++++  ++                                  ",
"                     ++++++                                      ",
"                    +++++++++                                    ",
"                    +++++++++                                    ",
"                  +++++++++++++                                  ",
"                  +++++++++++++                                  ",
"                     @@$$@@..                                    ",
"                     @@o$@@..                                    ",
"                  @@@@@@@@@OOOOO                                 ",
"                  @@@@@@@@@OOOOOO                                ",
"                     @@@@OOOOOOOOO                               ",
"                     @@@@OOOOOOOOOO                              ",
"                    @@@@@OOOOOOOOOOO                             ",
"                    @@@@@OOOOOOOOOOO                             ",
"                         OO..OOOOOOOO                            ",
"                         OO..OOOOOOOO                            ",
"                  ##.....OO..OOOOOOOO                            ",
"                   #...... ..OOOOOOOO          .....             ",
"                           ..OOOOOOOO          .....             ",
"                           ..XXXXXXXX        .....  ..           ",
"                           ..XXXXXXXX        .....  ..           ",
"                     XXXXXX..XXXXXXXX      .........             ",
"                     XXXXXX..XXXXXXXX      .........             ",
"                ...........@@XXXX.....................           ",
"                ...........@@XXXX.....................           ",
"                     XXXX    XXXX          .........             ",
"                     XXXX    XXXX          .........             ",
"                     XXXX    XXXX            .....  ..           ",
"                     XXXX    XXXX            .....  ..           ",
"                    XXXXX    XXXX              .....             ",
"                    XXXXX    XXXX              .....             ",
"                           XXXXXX                                ",
"                                                                 ",
"                                                                 ",
"                                                                 ",
"                                                                 ",
"                                                                 ",
"                                                                 ",
"                                                                 ",
"                                                                 ",
"                                                                 ",
"                                                                 ",
"                                                                 "
};
