/* XPM */
static char *_9a629bc19e2401cddb7c8883f30ca99tPFCMFtKU0Om0GPa[] = {
/* columns rows colors chars-per-pixel */
"65 65 221 2 ",
"   c None",
".  c black",
"X  c #010101",
"o  c #010202",
"O  c #020202",
"+  c #020303",
"@  c gray1",
"#  c #030404",
"$  c #030405",
"%  c #040405",
"&  c #040505",
"*  c gray2",
"=  c #040506",
"-  c #040607",
";  c #050607",
":  c #050707",
">  c #070707",
",  c #050708",
"<  c #060808",
"1  c #060809",
"2  c #070909",
"3  c #090909",
"4  c #080A0B",
"5  c gray4",
"6  c #080A0C",
"7  c #080B0D",
"8  c #0A0B0C",
"9  c #090C0E",
"0  c #0B0F11",
"q  c #0C1012",
"w  c #0C1112",
"e  c #0C1013",
"r  c #0D1113",
"t  c #0E1214",
"y  c #0F1214",
"u  c #0E1215",
"i  c #0F1316",
"p  c #0F1416",
"a  c #101010",
"s  c #101111",
"d  c #111111",
"f  c #161616",
"g  c #101518",
"h  c #111618",
"j  c #111619",
"k  c #12171A",
"l  c #12181B",
"z  c #17191A",
"x  c #13191C",
"c  c #141A1D",
"v  c #141B1E",
"b  c #151B1E",
"n  c #151C1F",
"m  c #181919",
"M  c #191919",
"N  c #1B1B1B",
"B  c #1D1E1E",
"V  c #1E1E1E",
"C  c gray12",
"Z  c #161D21",
"A  c #171E22",
"S  c #171F23",
"D  c #1D2021",
"F  c #182024",
"G  c #1A2226",
"H  c #1B2327",
"J  c #1D2325",
"K  c #1E2224",
"L  c #1E2325",
"P  c #1C2327",
"I  c #1B2328",
"U  c #1B2428",
"Y  c #1C2529",
"T  c #1C252A",
"R  c #1F282C",
"E  c #1F292E",
"W  c #202020",
"Q  c gray13",
"!  c #212122",
"~  c #212222",
"^  c #212223",
"/  c #212323",
"(  c #222323",
")  c #212324",
"_  c #222424",
"`  c #222425",
"'  c #212526",
"]  c #222426",
"[  c #2B2322",
"{  c #2B2525",
"}  c #222628",
"|  c #232628",
" . c #232728",
".. c #242628",
"X. c #242728",
"o. c #23282B",
"O. c #23292B",
"+. c #25292B",
"@. c #23292C",
"#. c #232A2D",
"$. c #202A2F",
"%. c #262A2C",
"&. c #262B2D",
"*. c #242B2F",
"=. c #272C2F",
"-. c #272D2F",
";. c #282C2F",
":. c gray18",
">. c #212B30",
",. c #212B31",
"<. c #212C31",
"1. c #222C31",
"2. c #222D32",
"3. c #232E33",
"4. c #242C30",
"5. c #262C30",
"6. c #242D33",
"7. c #242E32",
"8. c #242E33",
"9. c #262F33",
"0. c #232E34",
"q. c #232F34",
"w. c #242F34",
"e. c #252F34",
"r. c #242F35",
"t. c #252F35",
"y. c #292F32",
"u. c #253035",
"i. c #263035",
"p. c #243036",
"a. c #253036",
"s. c #253136",
"d. c #253137",
"f. c #263036",
"g. c #263136",
"h. c #273136",
"j. c #263237",
"k. c #283035",
"l. c #2A3135",
"z. c #2B3236",
"x. c #2A3237",
"c. c #2B3337",
"v. c #2F3134",
"b. c #253138",
"n. c #263238",
"m. c #273339",
"M. c #27343A",
"N. c #2B3338",
"B. c #28343A",
"V. c #28353B",
"C. c #29353B",
"Z. c #2C3438",
"A. c #2C3539",
"S. c #2C363A",
"D. c #2D363A",
"F. c #2C363B",
"G. c #29363C",
"H. c #29363D",
"J. c #2B363C",
"K. c #2A373D",
"L. c #2A373E",
"P. c #2E373C",
"I. c #2A383E",
"U. c #2B383E",
"Y. c #2B383F",
"T. c #2B393F",
"R. c #2C393F",
"E. c #2D393F",
"W. c #2F393E",
"Q. c #2F3A3F",
"!. c gray20",
"~. c gray23",
"^. c #493E3F",
"/. c #593B36",
"(. c #513F3D",
"). c #623C36",
"_. c #753C31",
"`. c #2C3940",
"'. c #2C3A41",
"]. c #2D3B42",
"[. c #2E3B42",
"{. c #2E3C43",
"}. c #2F3D44",
"|. c #303B40",
" X c #303C42",
".X c #313D43",
"XX c #303E45",
"oX c #303F46",
"OX c #314047",
"+X c #324148",
"@X c #334148",
"#X c #324149",
"$X c #334249",
"%X c #33434A",
"&X c #344249",
"*X c #34434B",
"=X c #34444C",
"-X c #35444C",
";X c #35454C",
":X c #35454D",
">X c #36454D",
",X c #36464D",
"<X c #36464E",
"1X c #37474F",
"2X c gray27",
"3X c #565656",
"4X c DimGray",
"5X c #842D0F",
"6X c #9D2C11",
"7X c #B12B0A",
"8X c #A43109",
"9X c #A93418",
"0X c #8A3927",
"qX c #8C3926",
"wX c #A0561B",
"eX c #B45F10",
"rX c #C78702",
"tX c #C7AA01",
"yX c #848484",
"uX c gray52",
"iX c #A9A9A9",
/* pixels */
"                                                                                                                                  ",
"                                                                                                                                  ",
"                                                                                                                                  ",
"                                                                                                                                  ",
"                                                                                                                                  ",
"                                                                                                                                  ",
"                                                                                                                                  ",
"                                                                                                                                  ",
"                                                                                                                                  ",
"                                                    Q Q Q Q Q Q Q Q Q                                                             ",
"                                                  Q Q Q Q Q Q Q Q Q Q Q                                                           ",
"                                                Q Q Q Q ..|.|.|.|.|.|.W.-.                                                        ",
"                                              Q Q Q Q +.J.[.D.Z.D.x.D.v.5.O.                                                      ",
"                                            Q Q Q Q Q D.+Xe.) Q Q Q Q Q 1.O.Q Q                                                   ",
"                                          Q Q Q Q Q Q x.+Xe.) Q Q Q Q Q @.@._ Q                                                   ",
"                                        Q Q Q Q Q Q D.{.e.) Q Q Q Q Q Q Q @.f.1.Q                                                 ",
"                                      Q Q Q Q Q Q W.I.5.| D Q uX4X2XiX!.Q _ | O.1._                                               ",
"                                    Q Q Q Q Q Q _ &XW.@.Q Q Q 4X3X~.uX:.Q Q D Q e.|                                               ",
"                                    Q Q Q Q Q Q _ +X`.@.Q Q Q Q Q Q Q Q Q Q Q Q e.|                                               ",
"                                    Q Q Q Q Q Q _ +X`.@.Q Q Q Q Q Q Q Q Q Q Q ) f.|                                               ",
"                                    Q Q Q Q Q Q _ &XW.f.5.Q Q Q Q Q Q Q Q +.e.e.b.|                                               ",
"                                    Q Q Q Q Q Q _ OXI.f.M.W._ Q Q Q Q Q x.H.n.n.n.|                                               ",
"                                    Q Q Q Q Q Q Q x.W.{.OX>XD.| +.l.Q x.W.H.n.n.[.+.                                              ",
"                                      Q Q Q Q Q Q W {.1X1X1X1X-.Z..XQ +X`.n.n.n.=X-.                                              ",
"                                      Q C Q Q Q Q Q W.>X1X>X>X5.Z.|._ +XI.n.n.M.+Xy.                                              ",
"                                        Q Q Q Q Q Q _ D.1X>XI.f.n.Z.p.M.n.[.>X+X%.                                                ",
"                                          Q Q Q Q Q Q ..x.>X+X+XOXOXOXOX+XD.5.5.                                                  ",
"                                                C a a a z Z.>X1X1X}.U I H L                                                       ",
"                                                  . * 4 y | W.(.^.f.9 . .                                                         ",
"                                                    Q @.n.f.[ 8X5X{ q.-                                                           ",
"                                                  Q C @.n.v.7XtXrX6Xq.- .                                                         ",
"                                                Q Q O.e.n.x.).eXwX/.f.U 6 . . .                                                   ",
"                                                Q Q 1.n.f.M.:X9X0X+Xn.n.q . . .                                                   ",
"                                                Q _ 5.n.M.I.>X0X_.+XH.n.l - . .                                                   ",
"                                          Q Q Q _ p.n.n.I.1X1X1X1X1X>XM.n.c . .                                                   ",
"                                        Q Q D _ p.n.f.{.;X1X1X1X1X1X>XV.n.l . . .                                                 ",
"                                      Q B O.5.u.f.f.{.=X1X1X1X1X1X1X>X+XH.$.I F . .                                               ",
"                                      Q O.f.M.f.M.].=X1X1X1X1X1X1X1X>X}.Z.n.b.p.S < .                                             ",
"                                      Q f.j.f.M.I.;X1X}.`.1X1X1X1X1X:XM.E <.n.n.n.l , .                                           ",
"                                  D Q _ f.f.M.I.1X1X1XH r 1X1X1X1X1X:XM.q l n.n.n.n.c . .                                         ",
"                                Q W | f.f.}.:X:X>X1X1XH 0 >X1X1X1X1X>XV.q l n.n.n.n.q.F . .                                       ",
"                                Q _ 1.p.p <.I.I.`.`.`.S y 1X1X1X1X1X>XM.q l n.n.n.n.F p S -                                       ",
"                                Q +.f.5.- H n.n.n.n.n.l q 1X1X1X1X1X:XM.0 l n.n.n.f.l 9 1.,                                       ",
"                                D P T T 0 S T U T T T y y >X1X1X1X1X>XM.l F n.n.n.E S g P 9                                       ",
"                                W e + < >.y - . . . . . r 1X1X1X1X1X:XM.n.n.n.p.q.e U H.- N                                       ",
"                                . l f.}.n.`..Xq..     . r 1X1X1X1X1X>XV.n.n.n.q.7 1.`.M.E <                                       ",
"                                . c M.I.OXH g g         P 1X1X1X1X1X>X+XS q 0 y 1.V.V.V.{.<                                       ",
"                                  e l l H e           -.f.1X1X1X1X1X1X1Xg 9 l v I.Z.I.V.H *                                       ",
"                                    . . .       . D 5.H.}.>X1X1X1X1X1X1Xg g n.n.1.@.1.>..                                         ",
"                                          . . . * 1.n.}.>X>X>X:X:X:X:X:Xg       Q 4 . .                                           ",
"                                        Q > . * B 1.}.}.`.>XH.M.V.n.M.Z.e                                                         ",
"                                      Q Q N f N _ f.H.{.}.`.oXV.n.n.e.y -                                                         ",
"                                      Q Q Q Q A Q f.M.{.+XM.:X`.n.n.q.- .                                                         ",
"                                      Q Q Q Q C z H 1.`.OXH.oXH.n.n.q.- .                                                         ",
"                                      Q Q Q Q N . . H p.n.+Xn.q.q.q.>.-                                                           ",
"                                                  . . * , < * - - - - .                                                           ",
"                                                            . . . .                                                               ",
"                                                                                                                                  ",
"                                                                                                                                  ",
"                                                                                                                                  ",
"                                                                                                                                  ",
"                                                                                                                                  ",
"                                                                                                                                  ",
"                                                                                                                                  ",
"                                                                                                                                  "
};
