/* XPM */
static char *b8f4f0f328874d36c6758dfd1c98fa73rVKON7bdfcbAav3U[] = {
/* columns rows colors chars-per-pixel */
"65 65 44 1 ",
"  c None",
". c #4DAF4F",
"X c #4EAF4F",
"o c #4FB04F",
"O c #50B04F",
"+ c #51B04F",
"@ c #52B14F",
"# c #53B14F",
"$ c #54B14F",
"% c #55B24F",
"& c #56B24E",
"* c #57B24E",
"= c #56B24F",
"- c #59B34E",
"; c #5BB34E",
": c #5BB44E",
"> c #5EB44E",
", c #5FB54E",
"< c #4CAF50",
"1 c #62B64D",
"2 c #63B64D",
"3 c #65B74D",
"4 c #66B74D",
"5 c #67B74D",
"6 c #68B84D",
"7 c #69B84D",
"8 c #6BB94C",
"9 c #6BB94D",
"0 c #6DB94C",
"q c #6FBA4C",
"w c #77BC4B",
"e c #70BA4C",
"r c #73BB4C",
"t c #78BD4B",
"y c #79BD4B",
"u c #7BBE4B",
"i c #7FBF4B",
"p c #83C04A",
"a c #87C14A",
"s c #8AC249",
"d c #8BC249",
"f c #8BC24A",
"g c #8AC34A",
"h c #8BC34A",
/* pixels */
"                                                                 ",
" ggggggggggggggggggggggggggggggggggggggggggggggggggggggggggggggg ",
" hghhhhghhhhhhhhhhhhhhhhhhhhhhhhhhhhhhhhhhhhhhhhhhhhhhhhhhhhgghh ",
" gg05555555555555555555555555555555555555555555555555555555559hh ",
" hh$<<<<<<<<<<<<<<<<<<<<<<<<<<<<<<<<<<<<<<<<<<<<<<<<<<<<<<<<<Xgh ",
" hg#<<<<<<<.<<<<<<<<<<<<<<<<<<<<<<<<<<<<<<<<<<<<<<<<<<<<<<<<<+hh ",
" hh#<<<<<#$#<<<<<+$$<<<<<<<<<<<<<<<<<<<<<<<<<<<<<<<<<<<X$-$<<Xhh ",
" hh$<<<<<wg5<<<<X5hr<<<<<<<<<<<<<<<<<<<<<<<<<<<<<<<<<<<:hhi<<#hh ",
" hg#<<<<<wg5<<<<<5gr<<<<<<<<<<<<<<<<<<<<<<<<<<<<<<<<<<<:hhi<<ohh ",
" hg#<<<<<#-0ii2<<+-+<<<<<<<<<<<<<<<<<<<<<<<<<<<<<<<<<<<o-$#<<ohh ",
" hg#<<<<<<<rhg9<<<<<<<<<<<<<<<<<<<<<<<<<<<<<<<<<<<<<<<<<o<<<<ohh ",
" hg#<<<<<<<rhg9<<<<<<<<<<<<<<<<<<<<<<<<<<<<<<<<<<<<<<<<<.<<<<ohh ",
" hh$<<<<<<<2r0955-<<<<<<<<<<<<<<<<<<<<<<<<<<<<<<<<<<<<<<<<<<<ohh ",
" hg#<<<<<<<<<<9ggr<<<<<<<<<<<<<<<<<<<<<<<<<<<<<<<<<<<<<<<<<<<ohh ",
" hh$<<<<<<<<<<5ii5<<<<<<<<<<<<<<<<<<<<<<<<<<<<<<<<<<<<<<<<<<<ohh ",
" hg#<<<<<<<<<<<<<<<<<<<<<<<<<<<<<<<<<<<<<<<<<<<<<<<<<<<<<<<<<ohh ",
" hh$<<<<<<<<<<<<<<<<<<<<<<<<<<<<<<<<<<<<<<<<<<<<<<<<<<<<<<<<<Xhh ",
" hg#<<<<<<<<<<<<<<<<<<<<<<<<<<<<<<<<<<<<<<<<<<<<<<<<<<<<<<<<<Xhh ",
" hh#<<<<<<<<<<<<<<<<<<<<<<<<<<<<<<<<<<<<<<<<<<<<<<<<<<o$ww0<XOhh ",
" hh$<<<<<<<<<<<<<<<<<<<<<<<<<<<<<<<<<<<<<<<<<<<<<<<<<<<:ggp<<Xhh ",
" hg#<<<<<<<<<<<<<<<<<<<<<<<<<<<<<<<<<<<<<<<<<<<<<<<<<<<#qq6<<Xhh ",
" hh#<<<<<<<<<<<<<<<<<<<<<<<<<<<<<<<<<<<<<<<<<<<<<<<<<<<<<<<<<Xhh ",
" hh$<<<<<<<<<<<<<<<<<<<<<<<<<<<<<<<<<<<<<<<<<<<<<<<<<<<<<<<<XOhh ",
" hg#<<<<<<<<<<<<<<<<<<<<<<<<<<<<<<<<<<<<<<<<<<<XooX<<<<<<<<<<Xhh ",
" hh$<<<<<<<<<<<<<<<<<<<<<<<<<<<<<<<<<<<<<<<<<<<6aaq<<<<<<<<<<ogg ",
" hg#<<<<<<<<<<<<<<<<<<<<<<<<<<<<<<<<<<<<<<<<<<<9ggq<<<<<<<<<<Xhh ",
" hh$<<<<<<<<<<<<<<<<<<<<<<<<<<<<<<<<<<<<<<<<<<<=,,=X<<<<<<<<<Xhh ",
" hg#<<<<<<<<<<<<<<<<<<<<<<<<<<<<<<<<<<<<<<<<<<<<<<<<<<<<<<<<<@hh ",
" hh$<<<<<<<<<<<<<<<<<<<<<<<<<<<<<<<<<<<<<<<<<<<<<<<<<<<<<<<<<ogg ",
" hg#<<<<<<<<<<<<<<<<<<<<<<<<<<<<<<<<<<<<<<<<<<<<<<<<<<<<<<<<<ohh ",
" hh#<<<<<<<<<<<<<<<<<<<<<<<<<<<<<<<<<<<<<<<<<<<<<<<<<<<<<<<<<Xhh ",
" hh$<<<<<<<<<<<<<<<<<<<<<<<<<<<<<<<<<<<<<<<<<<<<<<<<<<<<<<<<<@hh ",
" hh$<<<<<<<<<<<<<<<<<<<<<<<<<<<<<<<<<<<<<<<<<<<<<<<<<<<<<<<<<ogh ",
" hhO<<<<<<<<<<<<<<<<<<<<<<<<<<<<<<ipp=<<<<<<<<<<<<<<<<<<<<<<<Xhh ",
" hh$<<<<<<<<<<<<<<<<<<<<<<<<<<<<<<agg-<<<<<<<<<<<<<<<<<<<<<<<Xhh ",
" hgO<<<<<<<<<<<<<<<<<<<<<<<+rrr<<<111X<<<<<<<<<<<<<<<<<<<<<<<@hh ",
" hh$<<<<<<<<<<<<<<<<<<<<<<<Ohhh<<<<<X<<<<<<<<<<<<<<<<<<<<<<X<ogg ",
" hf$<<<<<<<<<<<<<<<<<<<<<<<$hgh<<<<<<<<<<<<<<<<<<<<<<<<<<<<X<ohh ",
" hfO<<<<<<<<<<<<<<<<<<<<<<<Oiyy<<<<<<<<<<<<<<<<<<<<<<<<<<<X--,hh ",
" hh$<<<<<<<<<<<<<<<<<<<<<<<<<<<<<<<<<<<<<<<<<<<<<<<<<<<<<<-hhhhh ",
" hh$<<<<<<<<<<<<<<<<<<<<<<<<<<<<<<<<<<<<<<<<<<<<<<<<<<<<<<=ggggh ",
" hhO<<<<<<<<<<<<<<<<<<-ppy<<<<<<<<<<<<<<<<<<<<<<<<<<<<<<<<X@==hh ",
" hh$<<<<<<<<<<<<<<<<<<:hgi<<<<<<<<<<<<<<<<<<<<<<<<<<<<<<<<<<XXhh ",
" hh$<<<<<<<<<<<<<<<<<<:hgi<<<<<<<<<<<<<<<<<<<<<<<<<<<<<<<<<<<Ohh ",
" hh$<<<<<<<<<<<<<<X$009905<<<<<<<<<<<<<<<<<<<<<<<<<<<<<<<<<<<ogg ",
" hhO<<<<<<<<<<<<<<<2hhy<<<<<<<<<<<<<<<<<<<<<<<<<<<<<<<<<<<<<<ohh ",
" hh$<<<<<<<<<<<<<O-9yyr<<<<<<<<<<<<<<<<<<<<<<<<<<<<<<<<<<<<<<Xhh ",
" hh$<<<<<<<<<<<<<9grX<<<<<<<<<<<<<<<<<<<<<<<<<<<<<<<<<<<<<<<<@hh ",
" hh$<<<<<<<<<<<<<5hr<<<<<<<<<<<<<<<<<<<<<<<<<<<<<<<<<<<<<<<<<ogg ",
" hf$<<<<<<<<<<<<<5hr<<<<<<<<<<<<<<<<<<<<<<<<<<<<<<<<<<<<<<<<<ohh ",
" hfO<<<<<<<<<<<<<+;$<<<<<<<<<<<<<<<<<<<<<<<<<<<<<<<<<<<<<<<<<Xhh ",
" hh$<<<<<<<<<<<<<<<<<<<<<<<<<<<<<<<<<<<<<<<<<<<<<<<<<<<<<<<<<@hh ",
" hh$<<<<<<<<<<<<<<<<<<<<<<<<<<<<<<<<<<<<<<<<<<<<<<<<<<<<<<<<<ogg ",
" hhO<<<<<<<<<<<<<<<<<<<<<<<<<<<<<<<<<<<<<<<<<<<<<<<<<<<<<<<<<ohh ",
" hh$<<<<<<<<<<<<<<<<<<<<<<<<<<<<<<<<<<<<<<<<<<<<<<<<<<<<<<<<<Xhh ",
" hh$<<<<<<<<<<<<<<<<<<<<<<<<<<<<<<<<<<<<<<+##X<<<<<<<<<<<<<<<@hh ",
" fh$<<<<<<<<<<<<<<<<<<<<<<<<<<<<<<<<<<<<<<whh5<<<<<<<<<<<<<<<ogg ",
" hh+<<<<<<<<<<<<<<<<<<<<<<<<<<<<<<<<<<<<<<whh5<X<<<<<<<<<<<<<ohh ",
" hh$<<<<<<<<<<<<<<<<<<<<<<<<<<<<<<<<<<<<<<$;;5i2<<<<<<<<<<<<<Xhh ",
" hg$<<<<<<<<<<<<<<<<<<<<<<<<<<<<<<<<<<<<<<X<<rg9<<<<<<<<<<<<<@hh ",
" hh$<<<<<<<X<<<<<<<<<<<<<<<<X<<<<..X<<<<X<<<Xeh8<<<<X..<<<<o<Xgg ",
" hh522222112522222222222222222112222222222112whw22222222222233hh ",
" hhhhhhhhhghggffhhhhhhhhhhhhhhgggghhhhgghhhhghghgggggggggghhhhhh ",
" hggsssssssgggggsssssssssssssssssgsssgggsssssgssssggsssgggghhhhg ",
"                                                                 "
};
