/* XPM */
static char *ce8d26b4caa94da0ea16e9c8fae6c057ZVjePu3SQAt0YCvX[] = {
/* columns rows colors chars-per-pixel */
"65 65 225 2 ",
"   c None",
".  c black",
"X  c #010101",
"o  c #020202",
"O  c gray1",
"+  c #040404",
"@  c gray2",
"#  c #060606",
"$  c #070707",
"%  c gray3",
"&  c #090909",
"*  c gray4",
"=  c #0B0B0B",
"-  c #0C0C0C",
";  c gray5",
":  c #0E0E0E",
">  c gray6",
",  c #101010",
"<  c #111111",
"1  c gray7",
"2  c #131313",
"3  c gray8",
"4  c #151515",
"5  c #161616",
"6  c gray9",
"7  c #181818",
"8  c #191919",
"9  c gray10",
"0  c #1B1B1B",
"q  c gray11",
"w  c #1D1D1D",
"e  c #1E1E1E",
"r  c gray12",
"t  c #202020",
"y  c gray13",
"u  c #222222",
"i  c #232323",
"p  c gray14",
"a  c #252525",
"s  c gray15",
"d  c #272727",
"f  c #282828",
"g  c gray16",
"h  c #2A2A2A",
"j  c gray17",
"k  c #2C2C2C",
"l  c #2D2D2D",
"z  c gray18",
"x  c #2F2F2F",
"c  c gray19",
"v  c #313131",
"b  c #323232",
"n  c gray20",
"m  c #343434",
"M  c #353535",
"N  c gray21",
"B  c #373737",
"V  c gray22",
"C  c #393939",
"Z  c #3A3A3A",
"A  c gray23",
"S  c #3C3C3C",
"D  c gray24",
"F  c #3E3E3E",
"G  c #3F3F3F",
"H  c gray25",
"J  c #414141",
"K  c gray26",
"L  c #434343",
"P  c #444444",
"I  c gray27",
"U  c #464646",
"Y  c gray28",
"T  c #484848",
"R  c #494949",
"E  c gray29",
"W  c #4B4B4B",
"Q  c #4C4C4C",
"!  c gray30",
"~  c #4E4E4E",
"^  c gray31",
"/  c #505050",
"(  c #515151",
")  c gray32",
"_  c #535353",
"`  c gray33",
"'  c #555555",
"]  c #565656",
"[  c gray34",
"{  c #585858",
"}  c gray35",
"|  c #5A5A5A",
" . c #5B5B5B",
".. c gray36",
"X. c #5D5D5D",
"o. c gray37",
"O. c #5F5F5F",
"+. c #606060",
"@. c gray38",
"#. c #626262",
"$. c gray39",
"%. c #646464",
"&. c #656565",
"*. c gray40",
"=. c #676767",
"-. c #686868",
";. c DimGray",
":. c #6A6A6A",
">. c gray42",
",. c #6C6C6C",
"<. c #6D6D6D",
"1. c gray43",
"2. c #6F6F6F",
"3. c gray44",
"4. c #717171",
"5. c #727272",
"6. c gray45",
"7. c #747474",
"8. c gray46",
"9. c #767676",
"0. c #777777",
"q. c gray47",
"w. c #797979",
"e. c gray48",
"r. c #7B7B7B",
"t. c #7C7C7C",
"y. c gray49",
"u. c #7E7E7E",
"i. c gray50",
"p. c #808080",
"a. c #818181",
"s. c gray51",
"d. c #838383",
"f. c #848484",
"g. c gray52",
"h. c #868686",
"j. c gray53",
"k. c #888888",
"l. c gray54",
"z. c #8B8B8B",
"x. c gray55",
"c. c #8D8D8D",
"v. c #8E8E8E",
"b. c gray56",
"n. c #909090",
"m. c gray57",
"M. c #929292",
"N. c #939393",
"B. c gray58",
"V. c #959595",
"C. c gray59",
"Z. c #979797",
"A. c #989898",
"S. c gray60",
"D. c #9A9A9A",
"F. c #9B9B9B",
"G. c gray61",
"H. c #9D9D9D",
"J. c gray62",
"K. c #9F9F9F",
"L. c #A0A0A0",
"P. c gray63",
"I. c #A2A2A2",
"U. c gray64",
"Y. c #A4A4A4",
"T. c #A5A5A5",
"R. c gray65",
"E. c #A7A7A7",
"W. c gray66",
"Q. c #A9A9A9",
"!. c #AAAAAA",
"~. c gray67",
"^. c #ACACAC",
"/. c gray68",
"(. c #AEAEAE",
"). c #AFAFAF",
"_. c gray69",
"`. c #B1B1B1",
"'. c #B2B2B2",
"]. c gray70",
"[. c #B4B4B4",
"{. c gray71",
"}. c #B6B6B6",
"|. c #B7B7B7",
" X c gray72",
".X c #B9B9B9",
"XX c gray73",
"oX c #BBBBBB",
"OX c #BCBCBC",
"+X c gray74",
"@X c gray",
"#X c gray75",
"$X c #C0C0C0",
"%X c #C1C1C1",
"&X c #C3C3C3",
"*X c gray77",
"=X c #C6C6C6",
"-X c gray78",
";X c #C8C8C8",
":X c gray79",
">X c #CBCBCB",
",X c gray80",
"<X c #CDCDCD",
"1X c #CECECE",
"2X c gray81",
"3X c #D0D0D0",
"4X c LightGray",
"5X c #D5D5D5",
"6X c #D7D7D7",
"7X c gray85",
"8X c #DADADA",
"9X c gray86",
"0X c #DDDDDD",
"qX c #DFDFDF",
"wX c gray88",
"eX c #E4E4E4",
"rX c gray90",
"tX c #ECECEC",
"yX c #EEEEEE",
"uX c #EFEFEF",
"iX c gray94",
"pX c #F3F3F3",
"aX c #FBFBFB",
"sX c #FDFDFD",
"dX c white",
/* pixels */
"                                                                                                                                  ",
"                                                                                                                                  ",
"                                                                                                                                  ",
"                                                                  l.H.8.F.g.i.                                                    ",
"                                                  e e g ) 1.H.l.1.g.*XL.[.oX!.m.d.g.d._.                                          ",
"                                                1 1 e N ' 4.c.8.+.O.O./.T.oX*X_.F./.c.l.T.>X                                      ",
"                                            U c O.:.=.4.F.d.l.l.c.e.:.@XT.T.oX2X3XoX@XT.L./.@X                                    ",
"                                          ! ! ' 1.+.! ' :.O.=.d.=.:.eXpXyX@XZ.L.9X@X_.@X&XoXZ.1.                                  ",
"                                      k J ! U c e : : e g d e G k 1 ! /.>XqX&XH._.*X2XoXL.H.oX1.8.                                ",
"                                    ! R ) R i 7 : : = : 7 U G =.g.g.O.:.*X2X9X9XT.!.2X6X@XT.@X!.R {                               ",
"                                  ! ! ! N 7 5 . . . . . $ c c G R ) =.=.:.L.>XeXyXT.@X[.[.*XoXH.[.L.L.                            ",
"                              m.! ! ! { N = . . . . . . $ G 5 : 5 5 1 d d ! =.Z.pX!.T.L.[.@XT.oXT.H.H./.dX                        ",
"                            8.R J N c Z R U e . . : 5 5 5 5 e 5 5 7 i 5 J +.J Z L.3XyX&XT.@XoXL./.@X_.H.Z.                        ",
"                          ! ! N 7 R ) ' Z e e $ 5 5 7 i i d 5 1 1 e Z J R U ) =.e.Z.&XH.i.i.8.c.d.Z./.!.g.Z.oXtX                  ",
"                        ! ! R R R : c J c i i 7 7 1         . e g i = = N Z U +.g.O.d._.qXyXoX!.>X!.e.8.!.H.Z.*XyX                ",
"                      ! ! U N G ) k U G g e g .                 7 g 7 i i d U O.N k J =.m.>XyXm.9X&Xg.i.oXL.!._.@X3X              ",
"                  ! R G G c G ! R g N c i 7                       e d J : : g ! { G G { ' ' F.g.@XL.e.8.T._.6X2XT.m.dX            ",
"                  ! U k +.' G g d c c 7 =                           $ 7 e : = d ' Z c +.8.+.J =.!./.l.:.g.9X9X>X!.l.              ",
"                  7 5 : ! ! i . . 5 : !                                 5 g c d : : = c ! U c R l.L.:.Z m.oXqX2X_.L.              ",
"                  . . . N G e . . . O.m.                                  : 5 e 7 $ $ : e i = i Z 1.m.c.e.oXoX6X3XH.              ",
"                  { R . N G e . 7 l.F.L.                                    . $ : e $ $ 7 d : 1 $ g { 1.1.&X/.!.!.H.              ",
"                  g ) . c k 1 Z Z.H.H.H.                                        1 d e 1 i Z i : +.d.8.=.:.@X/.[.m.                ",
"                  d ) . { ! 4.H.H.H.L.H.                                          . k 7 = 5 : d i.L.T.Z.1.&X!.[.c.                ",
"                  d ) . N i.H.L.H.L.H.H.                                            =.k 1 5 : . 1.L.L.c.:.&X!.oXm.                ",
"                  d ' . N i.H.H.H.H.L.H.                                            ) O.J 5 : . =.Z.d.=.:.&X/.[.c.                ",
"                  c O.. N i.H.H.L.H.L.H.                                            = G U 7 1 . 4.m.i.=.:.&X!.oXm.                ",
"                  Z =.k U g.L.H.H.L.H.H.                                            = J J i Z . =.m.g.=.1._.!.[.c.                ",
"                  G 4.=.+.l.H.H.H.H.H.L.                                            = e G ) =.$ +.Z.l.=.:.H.L.oXm.                ",
"                  G 4.=.O.l.H.L.L.H.H.L.                                            = . c 1.! . =.Z.l.=.:.H.T.[.c.                ",
"                  Z 4.=.O.l.H.L.L.H.H.L.                                            1 $ c :.G $ { m.g.=.:.L.L.oXm.                ",
"                  Z 4.=.O.l.H.H.H.H.H.H.                                            7 = N 4.O.$ =.e.:.=.:.H.L.oXc.                ",
"                  G 4.=.5 4.H.H.H.L.L.H.                                            7 5 J :.U . =.8.=.=.:.H.T.[.m.                ",
"                  Z 4.=.J d.L.H.L.H.H.H.                                            8.G G =.N . =.8.=.=.:.H.T.L.8.                ",
"                N N +.+.U d.H.H.H.H.L.L.                                            e.N J 4.' $ O.1.=.=.:.L.L.T.8.                ",
"                c 1 . . G d.H.L.H.L.H.H.                                        aXaXe.N J 4.{ $ { 1.+.=.:.H.T.L.8.                ",
"                c 1 . 5 G d.H.L.H.H.L.H.                                        aXaXi.N J :.J $ { 1.=.=.:.L.L.T.8.                ",
"                N : 1 =.R d.H.H.L.L.H.H.                                        aXaXe.N J { . . ' :.=.=.=.H.L.T.8.                ",
"                ) d 1 =.R d.H.H.H.H.H.L.                                        aXaXe.N J ' . . ' 1.=.=.:.H.T.L.4.                ",
"                8.) G :.R d.H.H.H.H.H.L.                                        aXaXe.N J { . . O.4.! J :.H.T.T.8.                ",
"                8.:.1.4.R d.L.L.L.L.H.H.                                        aXaXe.N G ) $ Z 1.1.Z 7 :.H.L.T.8.                ",
"                8.:.=.N ) l.H.H.H.H.L.H.                                        aXaXe.O.O.R = { 8.1.Z 7 :.H.L.T.8.                ",
"                :.:.+.7 ' l.L.H.H.L.H.H.                                        aXaXe.1.1.' c Z :.1.Z 7 :.L.T.L.8.                ",
"                  :.+.7 ' l.H.H.H.H.L.L.                                        aXaXi.1.1.=.{ N +.1.Z 7 :.H.T.T.4.                ",
"                  :.=.7 ' l.H.L.L.H.H.H.                                            =.1.1.=.+.c +.:.Z 7 :.L.L.T.8.                ",
"                  1.8.8.+.l.L.H.L.H.H.H.                                            =.1.1.=.O.c +.:.G e :.H.L.L.8.                ",
"                  :.8.8.O.l.H.H.H.H.L.L.                                            :.1.:.=.O.k O.:.=.=.:.L.T.T.8.                ",
"                  G 8.8.R d.H.L.H.L.H.H.                                            8.1.=.=.{ 1 O.4.{ ) :.H.T.T.4.                ",
"                  G 8.8.R d.H.L.H.H.L.H.                                            4.8.1.=.{ 5 4.8.Z 7 :.L.L.L.8.                ",
"                  G 1.! U d.H.H.H.L.H.H.                                            4.4.:.+.! d i.c.R 7 :.H.T.T.8.                ",
"                  O.+.7 ! g.L.H.H.L.H.L.                                            d.1.=.' 7 e i.L.O.7 :.H.L.T.8.                ",
"                  8.+.= ' l.H.H.H.H.L.H.                                        aXaX' ' =.R . 5 i.L.8.R :.H.L./.i.                ",
"                  8.O.. ' l.H.L.L.H.H.H.                                        aXaXZ R U e d $ 8.L.F.l.:.L.T.T.8.                ",
"                  8.+.5 ' l.H.H.H.H.L.L.                                        aXaXZ R O.! N $ 8.L.L.L.Z.L.T.L.8.                ",
"                  8.=.e ' l.L.H.L.H.H.H.                                        aXaXZ : k =.' $ e.L.T.L.L.L.L.T.8.                ",
"                  G +.7 ' l.H.H.L.H.H.H.                                        aXaXZ 7 Z { N $ =.m.L.T.L.T.L.T.4.                ",
"                  Z =.7 { l.H.L.H.H.L.L.                                            4.G G { N . :.Z.L.F.L.T.L.H.4.                ",
"                  N ' 5 ) l.H.H.L.H.H.H.                                            8.G Z { N . e.oXe.k L.T.i.R                   ",
"                7 c ' 5 N i.H.H.H.H.H.                                              8.Z G O.G $ 4._.m.O.H.L.H.                    ",
"                e d =.=.! g.H.H.H.H.                                                4.Z Z =.' $ +./.4.5 =.F.                      ",
"                e d =.=.O.l.H.L.                                                    8.G Z =.{ $ =.L.g.J '                         ",
"                = d =.=.c e.H.                                                      J R ' =.{ = :.F.H.                            ",
"                  i =.=.: U                                                         = R 1.' i . 8.H.                              ",
"                    &X@X                                                            . 1 G ! . .                                   ",
"                                                                                                                                  ",
"                                                                                                                                  "
};
