/* XPM */
static char *_57aed2ba218427e91df722d101704eeaTVYdDFImMkSvyMD[] = {
/* columns rows colors chars-per-pixel */
"100 100 2 1 ",
"  c None",
". c black",
/* pixels */
"                                                                                                    ",
"                                                                                                    ",
"                                                                                                    ",
"                                                                                                    ",
"                                                                                                    ",
"                                                                                                    ",
"                                                                                                    ",
"                                                                                                    ",
"                                                                                                    ",
"                                                                                                    ",
"                                                                                                    ",
"                                                                                                    ",
"                                                                                                    ",
"                                                                                                    ",
"                                                                                                    ",
"                                                                                                    ",
"                                                                                                    ",
"                                                                                                    ",
"                                                                                                    ",
"                                                                                                    ",
"                                                                                                    ",
"                               ....                                                                 ",
"                              ......                                                                ",
"                             ........                                                               ",
"                            ..........                                                              ",
"                           ............                                                             ",
"                          ..............                                                            ",
"                         ................                                                           ",
"                        ..................                                                          ",
"                       ....................                                                         ",
"                      ......................                                                        ",
"                     ........................                                                       ",
"                    ...........    ...........                                                      ",
"                   ...........      ...........                                                     ",
"                  ...........        ...........                                                    ",
"                 ...........          ...........                                                   ",
"                 ..........            ..........                                                   ",
"                 .........              .........                                                   ",
"                 ........                ........                                                   ",
"                 .......                  .......                                                   ",
"                 ......                    ......                                                   ",
"                 .....                      .....                                                   ",
"                 ....                        ....                                                   ",
"                 ....                        ....                                                   ",
"                 ....                        ....                                                   ",
"                 ....                        ....                                                   ",
"                 ....                        ....                                                   ",
"                 ....                        ....                                                   ",
"                 ....                        ....                                                   ",
"                 ....                        ....                                                   ",
"                 ....                        ....                                                   ",
"                 ....                        ....                                                   ",
"                 ....                        ....                                                   ",
"                 ....                        ....                                                   ",
"                 ....                        ....                                                   ",
"                 ....                        ....                                                   ",
"                 ....                        ....                                                   ",
"                 ....                        ....                                                   ",
"                 ....                        ....                                                   ",
"                 ....                        ....                                                   ",
"                 ....                        ....                                                   ",
"                 ....                        ....                                                   ",
"                 ....                        ....                                                   ",
"                 ....                        ....                                                   ",
"                 ....                        ....                                                   ",
"                 ....                        ....                                                   ",
"                 ....                        ....                                                   ",
"                 ....                        ....                                                   ",
"                 ....                        ....                                                   ",
"                 ....                        ....                                                   ",
"                 ....                        ....                                                   ",
"                 ....                        ....                                                   ",
"                 ....                        ....                                                   ",
"                 ....                        ....                                                   ",
"                 ....                        ....                                                   ",
"                 ....                        ....                                                   ",
"                 ....                        ....                                                   ",
"                 ....                        ....                                                   ",
"                 ....                        ....                                                   ",
"                 ....                        ....                                                   ",
"                 ....                        ....                                                   ",
"                 ....                        ....                                                   ",
"                 ....                        ....                                                   ",
"                 ....                        ....                                                   ",
"                 ....                        ....                                                   ",
"                                             ....                                                   ",
"                                                                                                    ",
"                                                                                                    ",
"                                                                                                    ",
"                                                                                                    ",
"                                                                                                    ",
"                                                                                                    ",
"                                                                                                    ",
"                                                                                                    ",
"                                                                                                    ",
"                                                                                                    ",
"                                                                                                    ",
"                                                                                                    ",
"                                                                                                    ",
"                                                                                                    "
};
