/* XPM */
static char *_9f4685b1cba45a8e3c3c88cd81a6544nfByLjmALzOTKHmO[] = {
/* columns rows colors chars-per-pixel */
"61 65 153 2 ",
"   c None",
".  c #1A1A1A",
"X  c #20201F",
"o  c #1E1F20",
"O  c #1F2121",
"+  c #232324",
"@  c #282827",
"#  c #242628",
"$  c #262A2C",
"%  c #2A2B2B",
"&  c #302F2F",
"*  c #262D31",
"=  c #292F31",
"-  c #2A3135",
";  c #2C363A",
":  c #2E393E",
">  c #333333",
",  c #383737",
"<  c #363739",
"1  c #343A3D",
"2  c #3D3D3D",
"3  c #403F3F",
"4  c #2F3B41",
"5  c #313D43",
"6  c #3D3F40",
"7  c #324047",
"8  c #3C4144",
"9  c #35454D",
"0  c #39464D",
"q  c #3D494F",
"w  c #364750",
"e  c #374850",
"r  c #3B4B53",
"t  c #444343",
"y  c #484747",
"u  c #484847",
"i  c #454748",
"p  c #45494B",
"a  c #4B4A4A",
"s  c #504F4F",
"d  c #51504F",
"f  c #434E53",
"g  c #494E50",
"h  c #455055",
"j  c #4C5255",
"k  c #47545B",
"l  c #49575E",
"z  c #4B585F",
"x  c #545454",
"c  c #585757",
"v  c #585857",
"b  c #505659",
"n  c #55595B",
"m  c #5C5C5B",
"M  c #605F5F",
"N  c #4C5A61",
"B  c #535E63",
"V  c #5A5E61",
"C  c #556066",
"Z  c #5E6162",
"A  c #576369",
"S  c #59656A",
"D  c #5C686E",
"F  c #5E6B71",
"G  c #636363",
"H  c #686867",
"J  c #62676A",
"K  c #636A6D",
"L  c #6C6B6B",
"P  c #706F6F",
"I  c #676E73",
"U  c #6D7274",
"Y  c #6D777C",
"T  c #6F797E",
"R  c #747372",
"E  c #707679",
"W  c #717A7F",
"Q  c #7C7D7D",
"!  c #807F7F",
"~  c #80807F",
"^  c #747D82",
"/  c #757F84",
"(  c #767F84",
")  c #727C81",
"_  c #7B7F81",
"`  c #768085",
"'  c #778085",
"]  c #7E8284",
"[  c #7C8284",
"{  c #7F878A",
"}  c #828281",
"|  c gray52",
" . c #838383",
".. c #888786",
"X. c #888887",
"o. c #80878A",
"O. c #84888A",
"+. c #82898D",
"@. c gray54",
"#. c #888B8D",
"$. c #8C8D8D",
"%. c #8C8C8B",
"&. c #908F8F",
"*. c #90908F",
"=. c #868E91",
"-. c #898F92",
";. c #8C9193",
":. c #8A9195",
">. c #939494",
",. c gray58",
"<. c #979696",
"1. c #949696",
"2. c #989797",
"3. c #979898",
"4. c #979B9E",
"5. c #979C9E",
"6. c #989898",
"7. c #999999",
"8. c #9B9A9A",
"9. c #9C9B9B",
"0. c #9C9C9B",
"q. c gray61",
"w. c #9C9D9E",
"e. c #9D9D9D",
"r. c #A09F9F",
"t. c #999EA0",
"y. c #9A9FA1",
"u. c #9A9FA1",
"i. c #9BA0A2",
"p. c #9CA1A3",
"a. c #9DA2A4",
"s. c #9EA3A5",
"d. c #9FA4A6",
"f. c #9CA1A2",
"g. c #A2A2A2",
"h. c #A7A7A8",
"j. c #A6A9AA",
"k. c #A8A9AA",
"l. c #ABACAD",
"z. c #ADAEAF",
"x. c #ADAEAE",
"c. c #AEAFAF",
"v. c #ABACAC",
"b. c #AEAFB0",
"n. c #ACAFB0",
"m. c #AFB0B1",
"M. c #AFB0B1",
"N. c #B0B1B1",
"B. c #B0B1B2",
"V. c #B1B2B3",
"C. c #B2B3B3",
"Z. c #B2B3B4",
"A. c #B1B2B3",
/* pixels */
"        . . . . . . . X X X . . . . . . . . . . . . . . . . . . . . . . . . . X X X . . . . . . . . . . . . . . . . . . . ",
"        + + + + + X + + X + + + + + X + + + + X + + + X + # + + + X + + X + + + + X + + + + + + + + + X + + + + + + + + X ",
"        2 3 t t 3 , > % + @ > , 3 3 3 3 3 3 3 3 3 3 3 3 3 3 3 3 2 3 3 3 3 3 , & # # % > 3 3 3 3 3 3 3 3 3 3 3 3 2 2 3 3 3 ",
"        L L L L L M a > % > y M L P L L L L L L L L L L L L L L L L L L P H v t & % , a G L P L H P H P L L L L L L L L L ",
"        6.6.6.e.6.| G 2 & 3 m } <.0.0.3.3.3.3.3.2.2.3.2.2.2.3.6.6.6.6.0.0.>.Q c , & i L %.6.4.6.2.2.2.2.2.2.2.6.2.2.2.2.2.",
"        z.z.N.Z.n.3.L i & 3 L ,.v.C.N.c.c.n.n.n.c.c.c.c.c.c.l.c.z.z.c.N.C.v.%.M 2 > a R e.N.Z.m.z.c.z.z.c.c.z.z.c.z.z.z.z.",
"        i.i.a.d.y.#.H t & 2 Z O.y.d.a.i.i.i.i.i.y.i.i.f.i.i.i.i.i.i.i.d.g.4.] m 2 & i I ;.a.d.a.f.f.f.i.i.i.i.i.f.i.f.f.f.",
"        ^ ^ / ` ^ I j < % > j K W ` ` ^ ^ ^ ) ` ` W ` W ^ ^ ^ ^ ^ ^ ^ ` ` W D p - % 2 n U ^ ` ` ^ ^ ^ ^ ^ ^ ^ ^ ^ ^ ^ ^ ^ ",
"        N N N N N h 8 = # % 6 h z N N N N N z N N N N N N N N N N N N N N N f 1 $ @ - 8 k N N N N N z z N N z z N N N N N ",
"        w r w w 0 7 ; $ # $ ; 5 e e e e e e e e e e w w r w w r r 9 e r w 9 7 - @ $ * : 9 w w w e e e w e e q e r 0 e w e ",
"        9 9 9 w 9 5 ; $ # $ ; 4 9 9 9 9 w 9 9 9 w 7 7 9 7 9 9 7 9 9 9 9 w 9 4 * @ # $ : 7 9 w 9 9 9 9 9 w 9 9 9 7 9 9 7 w ",
"        w 9 w w 9 7 ; * # $ ; 5 9 e e 9 w 9 9 9 w w w 9 w w 9 e 9 w 9 9 w w 4 ; $ # $ ; 7 w w w 9 w w 9 w 9 9 9 w w 9 w w ",
"        w w 9 w w 5 ; * + $ ; 5 9 9 9 9 9 9 9 9 w w 9 9 9 9 9 9 9 w w e e 7 7 - $ # $ : 7 e w w 9 9 9 9 7 9 9 9 9 9 w w 9 ",
"        4 4 5 5 5 ; * $ O # = ; 7 7 7 4 5 4 7 7 7 : 7 4 5 5 5 5 4 4 4 4 4 4 : * + O $ * 4 4 4 4 4 7 4 7 7 7 7 5 : 7 : 4 4 ",
"        * * * * * * O O o o # $ * * * = = - - ; - - * * * * * % * * * * * $ $ O . . + # $ * * * = = - - - - * * * * * * * ",
"        # # # # # + + o o o O # # $ O # # # # $ # # # # # # # # $ O $ $ $ $ O O O O + + # # # # # # $ $ $ # $ # # $ $ $ O ",
"        > > - & > & > & & - & > > & > & & % + + # % & > > & > & > & > > > & & - & & & & > & > - & % $ X X @ & & > & & & > ",
"        c c c c c c c c v v v v c v v c a , & @ & t s c v c v v c c c v v v v v v v v c c v v v x u , @ $ > u d v m v v v ",
"        ........| ......X.X.X.....@.%.} R d > % 2 m Q | %.@.............X...X.X.X.X...@...X.#.@.~ H u & & u H ~ @.@.X...X.",
"        k.k.k.h.h.v.v.v.h.k.k.k.k.x.x.h.%.G , > t R ,.v.z.k.k.k.k.h.k.k.h.h.j.j.k.k.k.k.k.k.l.l.r.~ x , > d Q r.v.c.v.h.k.",
"        k.k.k.k.j.l.j.j.l.j.j.j.k.l.l.h.%.Z 2 > y R 1.l.n.l.j.j.h.k.k.k.k.k.l.j.v.v.k.k.j.l.n.n.a.~ v < > x ~ r.n.n.v.k.k.",
"        $.-.=.=.=.=.=.=.=.=.-.=.=.:.:.+.E x < % 8 V ( -.:.-.-.=.$.-.=.=.=.=.=.=.#.=.=.=.:.:.:.:.o.I a - & p K { =.:.=.:.-.",
"        D F D D F F F F F D F F D F F D z 8 - @ > f A F F F F F D F D D D D F F F F D D F F F F S j 2 % % 1 j S F F F D D ",
"        r r r r r r r r r r r r r r f r 0 1 @ # = 4 r r r r r r r r r r k r r r r r r r r r r r q 7 - # # - 7 q r r r r r ",
"        w 9 9 9 9 9 9 9 9 9 9 9 w 9 9 9 4 ; # # $ ; 7 w 9 9 9 9 e e 7 w 9 9 9 9 9 9 9 9 9 9 9 w 7 : * # # * 4 7 e e 9 9 9 ",
"        7 w 9 9 9 9 9 9 9 9 9 9 e w 9 9 4 - @ # $ ; 5 9 w 9 9 9 7 w w e 9 9 9 9 9 9 9 9 9 9 w w 7 : = # # * 4 9 w e w 9 9 ",
"        w e w w 9 w 9 w 9 w w 9 w w w 9 5 ; @ # * ; 7 w r w 9 w e e e w w w w 9 9 e e e w w w w e 4 - # # - : 7 e e w e w ",
"        7 7 7 7 7 7 9 7 7 9 7 7 7 9 7 7 4 - # # $ ; 4 9 7 9 7 5 7 7 7 7 7 9 7 7 9 7 7 7 7 7 9 7 7 : = + # $ : 7 7 9 7 7 7 ",
"        : ; - ; ; ; : ; : : ; ; ; ; ; ; * $ + . O * - ; ; - ; ; ; ; ; ; ; ; ; : : : : ; ; : ; ; - * O O O # * * ; 7 ; - ; ",
"        $ $ $ $ * O $ $ % $ $ @ * O O $ O O X . o O # $ O $ $ $ O * O @ O $ O $ % $ $ $ O O $ $ $ O O O X X + $ O O O $ O ",
"        # % @ % $ $ # # # # # @ $ @ @ @ $ # # # # @ $ $ * # @ $ * $ % $ @ @ * @ # # # $ $ $ @ $ @ # @ @ + # # % * * % % * ",
"        t t t t i 2 > @ # @ > 2 i t i i i i t t t t t t i t t t t t t t t t 2 - @ + @ , t t t t t i t i t t u t t t t t t ",
"        R R R R R G s > @ > a G P R R R R R R R R R R R R R R R R R R R R R m y > @ , x H R R R R R R R R R R R R R R R R ",
"        e.e.f.d.r.@.J 3 & 2 M | 0.g.g.e.e.e.y.5.e.e.0.e.0.0.i.4.e.e.e.g.g.6.! v > > y L $.r.g.r.r.e.r.e.e.4.e.4.e.0.e.e.0.",
"        c.z.n.m.v.2.P t > 3 L >.z.C.m.c.c.z.l.n.z.z.z.z.x.x.n.l.z.l.n.N.Z.j.$.G 2 > a E e.N.Z.n.z.n.z.z.l.M.M.l.c.c.c.m.l.",
"        4.4.i.i.4.X.J 3 = 2 V  .5.i.i.5.5.5.t.t.4.4.y.4.4.4.5.5.5.t.y.y.y.4._ v , > i L -.4.f.y.4.4.4.4.5.t.5.i.5.4.5.5.5.",
"        Y ) Y ) W K j < $ < g J Y ^ W T T T T T W W T T T T T ) ) Y Y ) ) Y S p - % 2 j I ) ^ T W T T T T T Y Y T T T T T ",
"        N k N N k f 6 = # = 5 f l l l l l l l l l l l l l l l l k N k N N k q 1 $ @ - 8 h l l N l l l l l l l l l l l l l ",
"        w w w w w 7 ; $ + $ ; 5 e w w w 9 w w w w w e e w w w w w w w w w w 5 - $ # * : 7 w w w 9 w 9 w w 9 w w w w w w w ",
"        9 9 9 w 9 4 ; $ + $ ; 4 9 9 9 9 9 9 7 9 9 9 9 7 7 9 9 9 9 7 9 w 9 9 4 = $ O $ ; 7 9 9 9 9 9 9 9 9 9 9 9 9 9 7 9 9 ",
"        e 9 e w w 5 ; * + $ ; 4 9 w e 9 w 9 e 9 9 w 9 w 9 9 9 9 w w 9 w w 9 5 - @ # $ ; 7 9 w w 9 9 e e 9 e 9 e w w w w 7 ",
"        9 9 e 0 9 5 ; $ + $ ; 5 9 9 9 9 9 9 9 9 9 9 9 0 9 9 9 9 w 9 9 9 9 9 5 - $ # $ : 7 9 w 9 9 9 9 9 9 9 9 9 w 7 9 w w ",
"        4 4 4 4 4 ; = # + # * ; 4 4 4 4 4 5 5 5 4 4 4 4 5 : 5 4 4 4 4 4 4 4 - $ # O $ * : 4 5 5 5 4 4 4 5 4 1 4 : : 4 4 4 ",
"        * * $ * * $ + X . o + $ * * * * * * - - - - * % * * $ * * * * * * * @ + O . O # * $ $ $ * * - - - - - $ * * * $ $ ",
"        # $ # # # + + + X + + # # @ # # @ @ @ @ # # # # # @ # # O # # # # # # + O O + # # # @ # # @ @ $ # # # # # # # # O ",
"        > > > > > > > > > > > > > > > > - @ # # @ % > > < > > > > > , > > > > > > > > > > > > > > % @ # + @ & > > , > , 1 ",
"        m m m m m M m M M M M m m G M m x , @ @ & t x m M m m m V m m m M m m m m M m m M M M M v a > @ @ , u v m M m m m ",
"        %.%.%.%.%.%.%.%.%.%.%.%.$.$.&.X.R c < % 3 M ! %.>.$.$.#.$.%.$.%.%.%.%.&.$.$.$.&.@.&.&.@...L a > & u L | $.*.$.$.$.",
"        l.l.v.v.v.v.v.v.v.l.l.v.l.n.m.j.#.G 2 > y R 1.z.m.n.l.j.v.v.l.j.j.l.l.n.v.k.l.l.l.M.m.m.g.} c > > c Q g.z.M.l.v.v.",
"        g.j.j.j.j.g.j.j.j.g.j.j.j.j.n.a.#.Z 2 > y U 1.j.j.n.j.j.g.j.j.j.j.j.j.j.j.j.j.j.d.d.n.n.e._ c > > j Q y.j.l.j.j.g.",
"        +.+.+.+.{ +.+.{ +.{ { +.=.=.=.{ U b < % 2 m W +.=.{ =.{ +.+.{ =.{ +.{ { { +.{ { +.=.=.{ [ K p > > i J [ =.+.+.+.+.",
"        S S A S S S S S S S S S S S S A j 8 = @ > q B D D S A A S S S S S S A A S S S S S S D S C j 1 $ @ 1 h B D D D A S ",
"        r r r r r r r r r r r r r r r r 7 ; @ # * 1 w r r r r r r r r r r r r r r r r r r r r r r 5 - # # - 5 r r r r r r ",
"        9 9 9 9 9 9 9 9 9 9 9 9 9 9 w 9 4 - $ # $ ; 5 9 w w 9 9 9 9 7 9 9 9 9 9 9 9 9 9 9 9 w 9 7 : = # # % 4 7 w w 9 9 9 ",
"        9 9 9 9 9 9 9 9 9 9 9 9 9 w w 9 5 ; # # * ; 7 9 w 9 9 9 9 9 w 9 9 9 9 9 9 9 9 9 7 w e w 9 : * # # % 4 7 9 w 9 9 9 ",
"        e e 9 e w 9 w 9 w 9 9 w 9 w w 9 5 - @ + $ ; 9 w w w 9 w w 9 w w 9 w 9 w w 9 9 w e e w w 9 5 - # # - 4 9 w w w w 9 ",
"        7 7 7 7 7 7 7 7 9 7 7 7 7 7 9 5 5 = # # $ - 5 7 9 7 7 7 7 7 7 7 7 7 7 7 7 7 7 7 7 8 7 7 5 ; % # # = ; 5 7 7 7 7 7 ",
"        1 ; : : ; : ; ; : : - : ; : 1 ; - $ + + @ - - : < : : : ; : ; : : : ; 1 : : : ; : : : ; ; - $ + + @ - ; : 4 : : : ",
"        $ % $ $ * $ $ % % = % * % $ $ $ @ # + + # $ @ * $ $ % $ $ $ $ $ $ % $ $ $ $ % $ $ $ % % $ $ + + + # # $ $ $ $ $ % ",
"        + # + + O # # # + + + + + + # + # + + X X + + + + # + + # # # + # + + # + # # + + + # # # + + X X + + + # + # + + ",
"        + X X + . + X + O + X X + . + + X X + + X + . + X + . + X + . + X + X X + X + X . + X X X + X X + X X + + X X + X ",
"                                                                                                                          ",
"                                                                                                                          ",
"                                                                                                                          ",
"                                                                                                                          "
};
