/* XPM */
static char *_80ceb6846cb4d23f54c74df3275259e1J05FgFmhbAYgFlH[] = {
/* columns rows colors chars-per-pixel */
"65 65 113 2 ",
"   c None",
".  c #202020",
"X  c gray13",
"o  c #212122",
"O  c #212222",
"+  c #222222",
"@  c #222223",
"#  c #222323",
"$  c #222324",
"%  c #222424",
"&  c #232425",
"*  c #232526",
"=  c gray14",
"-  c #252525",
";  c #242526",
":  c #242627",
">  c gray15",
",  c #272727",
"<  c #242628",
"1  c #24272A",
"2  c #252829",
"3  c #25292B",
"4  c #26292B",
"5  c #262A2C",
"6  c #272B2D",
"7  c #272C2E",
"8  c #282828",
"9  c gray16",
"0  c #2A2A2A",
"q  c #2B2C2C",
"w  c #282C2E",
"e  c #2D2D2D",
"r  c #2D2E2E",
"t  c #282D30",
"y  c #282E31",
"u  c #2A3033",
"i  c #2A3134",
"p  c #2A3135",
"a  c #2B3236",
"s  c #2C3438",
"d  c #2E3438",
"f  c #2D353B",
"g  c #2D363A",
"h  c #2D373B",
"j  c #2E383D",
"k  c #2F393E",
"l  c gray19",
"z  c gray20",
"x  c #343434",
"c  c gray21",
"v  c #30373B",
"b  c #353738",
"n  c #393939",
"m  c #393B3B",
"M  c #3F3F3F",
"N  c #303B40",
"B  c #313D43",
"V  c #333D42",
"C  c #313D44",
"Z  c #323F46",
"A  c #354045",
"S  c #3C4144",
"D  c #35444C",
"F  c #36464F",
"G  c #37474F",
"H  c #39454B",
"J  c #3F4E55",
"K  c gray25",
"L  c gray26",
"P  c #434343",
"I  c #454646",
"U  c #404649",
"Y  c #44484A",
"T  c #484848",
"R  c gray31",
"E  c #4B4E50",
"W  c #484F53",
"Q  c #515151",
"!  c #515556",
"~  c #565656",
"^  c #53595B",
"/  c #585858",
"(  c #5A5B5C",
")  c #585E61",
"_  c #5D6264",
"`  c #606060",
"'  c #616262",
"]  c #626364",
"[  c #646464",
"{  c #656565",
"}  c #63686B",
"|  c #62696D",
" . c #6F6F6F",
".. c #606B71",
"X. c #606C71",
"o. c gray44",
"O. c #727475",
"+. c #707578",
"@. c #717A7F",
"#. c gray47",
"$. c #7D7D7E",
"%. c gray51",
"&. c #868787",
"*. c gray53",
"=. c #82898C",
"-. c #82898D",
";. c gray55",
":. c #98999A",
">. c #9F9F9F",
",. c #A3A6A8",
"<. c #B4B5B5",
"1. c #B4B5B6",
"2. c gray74",
/* pixels */
"                                                                                                                                  ",
"                                                                                                                                  ",
". . . . . . . . . . . . . . . . . . . . . . . . . . . . . . . . . . . . . . . . . . X X . . . . . . . . . . . . . . . . . . .     ",
"Q Q Q Q Q Q Q Q L , c Q Q Q Q Q Q Q Q Q Q Q Q Q Q Q Q Q Q Q Q Q Q Q Q Q Q R M , X X X r T Q Q Q Q Q Q Q Q Q Q Q Q Q Q Q Q Q Q     ",
">.>.>.>.>.>.>.>.#.r / >.>.>.>.>.>.>.>.>.>.>.>.>.>.>.>.>.>.>.>.>.>.>.>.,.>.>.o.8 . # . L &.>.>.>.>.>.>.>.>.>.>.>.>.>.>.>.,.>.>.    ",
"2.2.2.2.2.2.2.2.;.c { 2.2.2.2.2.2.2.2.2.2.2.2.2.2.2.2.2.2.2.2.2.2.2.2.2.2.2.%.9 . . . T >.2.2.2.2.2.2.2.2.2.2.2.2.2.2.2.2.2.2.    ",
"2.2.2.2.2.2.2.2.;.c { 2.2.2.2.2.2.2.2.2.2.2.2.2.2.2.2.2.2.2.2.2.2.2.2.2.2.2.%.9 . . O T >.2.2.2.2.2.2.2.2.2.2.2.2.2.2.2.2.2.2.    ",
"2.2.2.2.2.2.2.2.;.z { 2.2.2.2.2.2.2.2.2.2.2.2.2.2.2.2.2.2.2.2.2.2.2.2.2.2.2.%.9 O . O T >.2.2.2.2.2.2.2.2.2.2.2.2.2.2.2.2.2.2.    ",
"2.2.2.2.2.2.2.2.;.x { 2.2.2.2.2.2.2.2.2.2.2.2.2.2.2.2.2.2.2.2.2.2.2.2.2.2.2.%.9 . # . T >.2.2.2.2.2.2.2.2.2.2.2.2.2.2.2.2.2.2.    ",
"=.=.=.=.=.=.=.=.} r E =.=.=.=.=.=.=.=.=.=.=.=.=.=.=.=.=.=.-.-.-.=.=.=.=.=.=._ 8 . . . m +.=.=.=.=.=.=.=.-.-.-.-.=.=.-.-.-.=.=.    ",
"J J J J J J J J Z , s J J W J J J J J J J J J J J J J J J J W J J W J J J J B * . . # w D J J W J J J J J J W J J W J J J J J     ",
"G G G G G G G G k , i F F G G F G G G G G G G G G F F F F F G G D G F D G G h # # . . 7 D F F F F F F F F D G G F F F F G G F     ",
"G G G G F F F G N * i G F F F F F J D F F F J F G G G G G G G G F F F F J F h # . . . 7 A F F F F G G G G G G G G G F F G G F     ",
"G G G G F F J D N * i G F F F F F F F F F F D F G G G G G G G G F F F F G G k O . = . 5 A G F F F J G G F F G G G G G F G G F     ",
"D D D D D D D D k * i D D D G D D D D F D D D D D F D D G D D G F D D D D D h O . . . 5 C D D D D D D D D D D F F D D D D F F     ",
"i i i i i i i i 7 * 2 i i i a a i i i i i i i i i i i i y s y y i i i i i i 7 O . = . 8 y i i i i i i i i i i i i i i i i i i     ",
"O O O . . . . . . . # . # . X X X X X X X X X X . . . # . # . # # . # . # . . . . # . . # . . . O . O . # . # X X X X X X X X     ",
"O O O O . . . $ . . . # X # X X X X X X X X X X . . # . # . # . X # . . . # . . . . . . . . # . O O . O . . . # X X X X X X X     ",
"z z x x x x c c x x x x x x x x x x x 9 X X X X 9 x z c x x x x x x x x c x x x c c x x c c z z x x z z e . 9 x x x x x x c x     ",
";.;.;.;.;.;.;.;.;.;.;.;.;.;.;.;.;.;.;.R X X X X R ;.;.;.;.;.;.;.;.;.;.;.;.;.;.;.;.;.;.;.;.;.;.;.;.;.;.;.[ 9 ~ ;.;.;.;.;.;.;.;.    ",
",.,.,.,.,.,.,.,.,.,.,.,.,.,.,.,.,.,.,.( X X X X ( ,.,.,.,.,.,.,.,.,.,.,.,.,.,.,.,.,.,.,.,.,.,.,.,.,.,.,.O.9 [ ,.,.,.,.,.,.,.,.    ",
"..................X...........X.....X.V X X X X S ............X.| ..............X.......X.X.......X...X.W , H X.............X.    ",
"G G G G G G F G G G G G F G G G H J G s X X X X i G G G G G G G G G G G G G G G G G G G G G G G F G G G f * s G G G G G G G F     ",
"G G G G G G G G G G G G G G G G G G G u X X X X i G G G G G G G G G G G G G G G G G G G G G G G G G G G k . s G G G G G G F F     ",
"G G G G G G G G G G G G G G G G G G G y X X X X y G G G G G G G G G G G G G G G G G G G G G G G G G G G k # s G G G G G G G F     ",
"G G G G G G G G G G G G G G G G G G G s X X X X s G G G G G G G G G G G G G G G G G G G G G G G G G G G k # s G G G G G G G F     ",
"G G G G G G G G G G G G G G G G G G G y X X . # y G G G G G G G G G G G G G G G G G G G G G G G G G G G h # s G G G G G G G F     ",
"G G G G G G G G G G G G G G G G G G G s # . # . s G G G G G G G G G G G G G G G G G G G G G G G G G G G k # s G G G G G G G F     ",
"G G G G G G G G G G G G G G G G G G F y O . . # y G F F F F G G F F F F G G G G G G G G G G G G G G G G k # a G F F F J G G F     ",
"G G G F G G G G G G G G G G G G G G J i . . # . s G F J G G G G G F F J G G G G G G G G G G G G G G G G h # s G G F F F G G F     ",
"g g g g g g g g g g g g g g g g d g g 6 . . . . 6 g g f g g g g s h h g g g g g g g g g g g g g g g g g i X 6 g s h g g g k g     ",
". , . * # # # # # # # # # # # # . $ $ . . $ . $ . = $ . . = # # # # . * . , . $ # # # # # # # # # # # # # . . # # # . , . . $     ",
". . O . O . O . X X X X O . O . . . . . . . O O . O . O . O O O X X . # . . . . . . . . # . . . $ # . # X X X X X X X X X X X     ",
". O . O . O . O X X X X . O . O . $ . . . . . O O . O O O . O O X X . . . = . = . O . . # . . . . . # . X X X X X X X X X X X     ",
"o.o.o.o. . .o.o.~ 9 L o.o.o.o.o.o.o.o.o.o.o.o. . . . . .o.o.o.o. . . . . .o.Q , O . O x ' o. .o.o.o. . . . . .o. . . . . . . .    ",
"<.<.<.<.<.<.<.<.&.z _ <.<.<.<.<.1.1.1.<.<.<.<.<.<.<.<.<.<.<.1.1.<.<.<.<.<.<.$.9 . O O T :.<.<.<.1.<.<.<.1.1.1.1.1.1.1.1.<.<.<.    ",
"@.@.@.@.@.@.@.@.) 0 Y @.@.@.@.@.@.@.@.@.@.@.@.@.@.@.@.@.@.@.@.@.@.@.@.@.@.@.! , O . O x | @.@.@.@.@.@.@.@.@.@.@.@.@.@.@.@.@.@.    ",
"F F J F G G G G k , i F G G G G J F F F G G G G F F G G G G G G G G G G J F k . . O . 5 D G G G G G G G G G G G G G G G F F F     ",
"G G D F G G J F N * i F G G G G G G F F G G G G G G G G G G G G G G G G G F k . O . O 5 A G G G G G G G G G G G G G F F F F F     ",
"G F F F G G D F N : a F G G G G G G F F G G G G G G G G G G G G G G G G G F k * O O O 2 A G F F G G G G G G G G G G F F F J F     ",
"G G G G G G G G N : a G G G G G G G G G G G G G G G G G G G G G G G G G G G k # . . # 7 A D F F G G G G G G G G G G G G G G F     ",
"G G G G G G G G k : a G G G G G G G G G G G G G G G G G G G G G G G G G G G h # . . . 5 A G F F G G G G G G G G G G G G G G F     ",
"G G G G G G G G N : a F G G G G G G G G G G G G G G G F G G G G G G G G G G k # . . . 7 C G G G G G G G G G G G G G G G G G F     ",
"G G G G G G G G k : a F G G G G G G G G G G G G G G G F G G G G G G G G G F k # = . . 5 A G G G G G G G G G G F G G G G G G F     ",
"G G G G G G G G N : i F G G G G G G G G G G G G F F F F F F G F G G G G G G k # . . X 5 C F F F G F F G F F F F G G G F G G F     ",
"B B B B B B B B a * y N B B B B B B B B B B B B N A A N N A N A B B B N B B i # = . X 5 k B B B A A A N N N A N B B B B B B B     ",
"5 : 5 : : 5 5 , : O * 2 8 2 5 : 5 : 5 : : 8 8 5 2 2 2 2 2 2 2 2 5 5 , 5 5 5 # . . . . , , < 5 5 2 2 2 2 5 8 : 5 5 8 5 < , 5 5     ",
"Q R Q Q Q Q Q R Q Q R Q Q R Q Q Q Q R c O X X . b Q Q Q Q Q Q R R Q R Q R Q Q Q Q Q Q Q Q Q R Q Q Q Q R M # n Q Q R Q Q R Q Q     ",
">.>.>.>.>.>.>.>.>.>.>.>.>.>.>.>.>.>.>./ . . X X ~ >.>.>.>.>.>.>.>.>.>.>.>.>.>.>.>.>.>.>.>.>.>.>.>.>.>.>.o.8 ` >.>.>.>.>.>.>.>.    ",
"2.2.2.2.2.2.2.2.2.2.2.2.2.2.2.2.2.2.2.[ . . # . { 2.2.2.2.2.2.2.2.2.2.2.2.2.2.2.2.2.2.2.2.2.2.2.2.2.2.2.%.0 o.2.2.2.2.2.2.2.2.    ",
"2.2.2.2.2.2.2.2.2.2.2.2.2.2.2.2.2.2.2.} $ # . # { 2.2.2.2.2.2.2.2.2.2.2.2.2.2.2.2.2.2.2.2.2.2.2.2.2.2.2.%.0 o.2.2.2.2.2.2.2.2.    ",
"=.=.=.=.=.=.=.=.=.=.=.=.=.=.=.=.=.=.=.E . . # . R =.-.-.=.=.=.=.=.=.=.=.=.=.=.-.-.-.-.-.-.-.-.-.-.-.-.-._ 8 ! =.=.=.=.=.=.=.=.    ",
"J J J J J J J J J J J J J J J J W J J s = . = . d W J J J J J J J J J J J J J J J J J J W J J J J J J J A O h J J J J J J J J     ",
"G G G G G G G G G G G G G G G G G G F p . . . . i F J F F D G G G G G G G G G G F G G G G G F F G F G G h O h G G G G G G G F     ",
"G G G G G G G G G G G G G G G G G G G y . . = . i F F F F F F G G G G G G G G G G G G G G G G G G G G G h O s F G G G G G G F     ",
"G G G G G G G G G G G G G G G G G G G s . = . . i F F F F F J D G G G G G G G G G G G G G G G G G G G G k % s F G G G G G G F     ",
"G G G G G G G G G G G G G G G G G G G i . . = . i G G G G G G F G G F F F D G G G G G G G G G G G G G G v # s G G G F G G G F     ",
"G G G G G G G G G G G F G G G G G G G i . $ . . i G G F G G G F G G F F F J G G G G G G G G G G G G G F f # s G G G F F G G F     ",
"D D D D D D F D D F D F D F D D D D D i . . . . y F F D D D F F D D D D D D D D D D H G D D D D D D F F k . s D F F D D D F F     ",
"i i i i i i i s i i i i i i i i i i i 5 . = . = , s i i i i i i i i i i i i i i y s y y s y d y i i i i w . < s i i i i i i i     ",
". . . $ . . . . . = . = . . . . . . , . . , . . X X X X . . , . . , . . O O O O # . # X # . # . . . # . # . # . . # . # . . .     ",
"$ . . . = . = . . . . . . . . # . . . . . . . . X X X X . . . . . . . . O O O . . # . X . # . # . . . # . . . # # . # . . . .     ",
". . . . . . . . . . . . . . . . . . . . . . . . . . . . . . . . . . . . . . . . . . . . . . . . . . . . . . . . X . . . . . .     ",
"                                                                                                                                  ",
"                                                                                                                                  "
};
