/* XPM */
static char *_1a1b8851ba4456ac0e5962ff085c95ejeIrNUUSxC5XehAX[] = {
/* columns rows colors chars-per-pixel */
"100 100 6 1 ",
"  c None",
". c black",
"X c #D50000",
"o c #EF5350",
"O c #E57373",
"+ c #EF9A9A",
/* pixels */
"                                                                                                    ",
"                                                                                                    ",
"                                                                                                    ",
"                                                                                                    ",
"                                                                                                    ",
"                                                                                                    ",
"                                                                                                    ",
"                                                                                                    ",
"                                                                                                    ",
"                                                                                                    ",
"                                                                                                    ",
"                                                                                                    ",
"                                                                                                    ",
"                                                                                                    ",
"                                                                                                    ",
"                                                                                                    ",
"                                                                                                    ",
"                                                                                                    ",
"                                                                                                    ",
"                                                                                                    ",
"                                                                                                    ",
"                                                                                                    ",
"                                                                                                    ",
"                                                                                                    ",
"                                                                                                    ",
"                                                                                                    ",
"                                                                                                    ",
"                                                                                                    ",
"                                                                                                    ",
"                                                                                                    ",
"                          ..............................................                            ",
"                         XXXXXXXXXXXXXXXXXXXXXXXXXXXXXXXXXXXXXXXXXXXXXX.                            ",
"                        ooooooooooooooooooooooooooooooooooooooooooooooX.                            ",
"                       O+++++OOOOO+++++OOOOO+++++OOOOO+++++OOOOO+++++oX.                            ",
"                       O+++++OOOOO+++++OOOOO+++++OOOOO+++++OOOOO+++++oX.                            ",
"                       OOOOO+++++OOOOO+++++OOOOO+++++OOOOO+++++OOOOO+oX.                            ",
"                       OOOOO+++++OOOOO+++++OOOOO+++++OOOOO+++++OOOOO+oX.                            ",
"                       ++++OOOOO+++++OOOOO+++++OOOOO+++++OOOOO+++++OOoX.                            ",
"                       ++++OOOOO+++++OOOOO+++++OOOOO+++++OOOOO+++++OOoX.                            ",
"                       OOO+++++OOOOO+++++OOOOO+++++OOOOO+++++OOOOO+++oX.                            ",
"                       OOO+++++OOOOO+++++OOOOO+++++OOOOO+++++OOOOO+++oX.                            ",
"                       ++OOOOO+++++OOOOO+++++OOOOO+++++OOOOO+++++OOOOoX.                            ",
"                       ++OOOOO+++++OOOOO+++++OOOOO+++++OOOOO+++++OOOOoX.                            ",
"                       ++++++OOOOO+++++OOOOO+++++OOOOO+++++OOOOO++++OoX.                            ",
"                       ++++++OOOOO+++++OOOOO+++++OOOOO+++++OOOOO++++OoX.                            ",
"                       OOOOO+++++OOOOO+++++OOOOO+++++OOOOO+++++OOOOO+oX.                            ",
"                       OOOOO+++++OOOOO+++++OOOOO+++++OOOOO+++++OOOOO+oX.                            ",
"                       ++++OOOOO+++++OOOOO+++++OOOOO+++++OOOOO+++++OOoX.                            ",
"                       ++++OOOOO+++++OOOOO+++++OOOOO+++++OOOOO+++++OOoX.                            ",
"                       OOO+++++OOOOO+++++OOOOO+++++OOOOO+++++OOOOO+++oX.                            ",
"                       OOO+++++OOOOO+++++OOOOO+++++OOOOO+++++OOOOO+++oX.                            ",
"                       ++OOOOO+++++OOOOO+++++OOOOO+++++OOOOO+++++OOOOoX.                            ",
"                       ++OOOOO+++++OOOOO+++++OOOOO+++++OOOOO+++++OOOOoX.                            ",
"                       ++++++OOOOO+++++OOOOO+++++OOOOO+++++OOOOO+++++oX.                            ",
"                       ++++++OOOOO+++++OOOOO+++++OOOOO+++++OOOOO+++++oX.                            ",
"                       OOOOO+++++OOOOO+++++OOOOO+++++OOOOO+++++OOOOO+oX.                            ",
"                       OOOOO+++++OOOOO+++++OOOOO+++++OOOOO+++++OOOOO+oX.                            ",
"                       ++++OOOOO+++++OOOOO+++++OOOOO+++++OOOOO+++++OOoX.                            ",
"                       ++++OOOOO+++++OOOOO+++++OOOOO+++++OOOOO+++++OOoX.                            ",
"                       OOO+++++OOOOO+++++OOOOO+++++OOOOO+++++OOOOO+++oX.                            ",
"                       OOO+++++OOOOO+++++OOOOO+++++OOOOO+++++OOOOO+++oX                             ",
"                       ++OOOOO+++++OOOOO+++++OOOOO+++++OOOOO+++++OOOOo                              ",
"                       ++OOOOO+++++OOOOO+++++OOOOO+++++OOOOO+++++OOOO                               ",
"                                                                                                    ",
"                                                                                                    ",
"                                                                                                    ",
"                                                                                                    ",
"                                                                                                    ",
"                                                                                                    ",
"                                                                                                    ",
"                                                                                                    ",
"                                                                                                    ",
"                                                                                                    ",
"                                                                                                    ",
"                                                                                                    ",
"                                                                                                    ",
"                                                                                                    ",
"                                                                                                    ",
"                                                                                                    ",
"                                                                                                    ",
"                                                                                                    ",
"                                                                                                    ",
"                                                                                                    ",
"                                                                                                    ",
"                                                                                                    ",
"                                                                                                    ",
"                                                                                                    ",
"                                                                                                    ",
"                                                                                                    ",
"                                                                                                    ",
"                                                                                                    ",
"                                                                                                    ",
"                                                                                                    ",
"                                                                                                    ",
"                                                                                                    ",
"                                                                                                    ",
"                                                                                                    ",
"                                                                                                    ",
"                                                                                                    ",
"                                                                                                    "
};
